<?xml version="1.0" standalone="no"?>
<!DOCTYPE svg PUBLIC "-//W3C//DTD SVG 20010904//EN"
 "http://www.w3.org/TR/2001/REC-SVG-20010904/DTD/svg10.dtd">
<svg version="1.0" xmlns="http://www.w3.org/2000/svg"
 width="2000.000000pt" height="1546.000000pt" viewBox="0 0 2000.000000 1546.000000"
 preserveAspectRatio="xMidYMid meet">

<g transform="translate(0.000000,1546.000000) scale(0.100000,-0.100000)"
fill="#000000" stroke="none">
<path d="M1620 14375 l0 -235 48 0 c26 0 57 -3 70 -6 l22 -6 0 -584 0 -584
-70 0 -70 0 0 -240 0 -240 380 0 380 0 0 143 c0 78 -3 186 -7 240 l-6 97 -64
0 -63 0 0 200 0 200 195 0 195 0 0 -200 0 -200 -70 0 -70 0 0 -240 0 -240 380
0 380 0 0 158 c0 86 -3 194 -7 240 l-6 82 -63 0 -64 0 0 585 0 584 68 3 67 3
3 125 c2 69 0 176 -3 238 l-7 112 -374 0 -374 0 0 -235 0 -235 48 0 c97 0 92
9 92 -166 l0 -154 -118 0 c-66 0 -153 3 -195 6 l-77 7 0 148 0 148 68 3 67 3
3 125 c2 69 0 176 -3 238 l-7 112 -374 0 -374 0 0 -235z m610 0 l0 -94 -67 -3
-68 -3 0 -295 0 -295 340 -3 340 -2 -2 227 c-1 126 -2 260 -3 300 l0 72 -67 3
-68 3 0 90 0 90 233 3 232 2 0 -94 0 -95 -67 -3 -68 -3 -3 -727 -2 -728 70 0
70 0 0 -100 0 -100 -232 2 -233 3 -3 93 -3 92 55 0 c94 0 86 -32 86 351 l0
339 -340 0 -340 0 0 -340 0 -340 55 -1 c30 -1 61 -2 68 -3 8 -1 13 -30 15 -98
l3 -98 -236 0 -235 0 0 95 0 94 68 3 67 3 3 733 2 732 -70 0 -70 0 0 95 0 95
235 0 235 0 0 -95z"/>
<path d="M3390 14375 l0 -235 48 0 c26 0 57 -3 70 -6 l22 -6 0 -584 0 -584
-70 0 -70 0 0 -240 0 -240 380 0 380 0 0 158 c0 86 -3 194 -7 240 l-6 82 -63
0 -64 0 0 585 0 584 68 3 67 3 1 225 c0 124 -2 231 -4 238 -3 9 -88 12 -378
12 l-374 0 0 -235z m614 9 c3 -47 4 -90 1 -95 -4 -5 -35 -9 -71 -9 l-64 0 0
-730 0 -730 53 0 c28 0 57 -4 63 -8 7 -4 13 -44 15 -97 l4 -90 -232 -3 -233
-2 0 97 0 98 42 -2 c24 -1 55 0 71 3 l27 6 0 637 c0 351 -3 679 -6 729 l-7 92
-63 0 c-72 0 -65 -11 -65 105 0 30 0 62 0 70 1 13 33 15 230 15 l228 0 7 -86z"/>
<path d="M4290 14375 l0 -235 49 0 c89 0 81 60 81 -596 l0 -583 -62 -3 -63 -3
-3 -237 -2 -238 645 0 645 0 0 375 0 375 -235 0 -235 0 0 -135 0 -135 -105 0
-105 0 0 585 0 584 63 3 62 3 3 135 c2 74 0 181 -3 238 l-7 102 -364 0 -364 0
0 -235z m598 -2 l3 -92 -68 -3 -68 -3 -3 -726 -2 -726 91 -6 c115 -9 356 -9
387 -1 21 6 22 10 22 140 l0 134 95 0 95 0 0 -235 0 -235 -500 0 -500 0 0 99
c0 94 1 99 20 94 11 -3 40 -2 65 1 l45 7 0 647 c0 356 -3 684 -7 730 l-6 82
-58 0 -59 0 0 95 0 95 223 -2 222 -3 3 -92z"/>
<path d="M5730 14375 l0 -234 58 -3 57 -3 6 -65 c4 -36 7 -300 8 -587 l1 -523
-65 0 -65 0 0 -240 0 -240 646 0 c585 0 646 1 640 16 -3 9 -6 177 -6 375 l0
359 -235 0 -235 0 0 -135 0 -135 -105 0 -105 0 0 585 0 585 65 0 65 0 0 240 0
240 -365 0 -365 0 0 -235z m590 0 l0 -95 -65 0 -65 0 0 -729 0 -728 83 -6
c104 -9 370 -9 391 -1 14 5 16 27 16 140 l0 134 95 0 95 0 0 -235 0 -235 -500
0 -500 0 0 98 0 97 38 -2 c20 -1 49 0 65 3 l27 6 0 652 c0 359 -3 687 -6 729
l-7 77 -58 0 -59 0 0 95 0 95 225 0 225 0 0 -95z"/>
<path d="M7160 14375 l0 -235 53 0 c28 0 62 -3 75 -6 l22 -6 0 -584 0 -584
-75 0 -75 0 0 -240 0 -240 365 0 366 0 -3 238 -3 237 -72 3 c-66 3 -73 5 -78
25 -7 27 0 445 7 453 3 2 18 -33 33 -78 15 -46 41 -117 58 -158 16 -41 58
-156 92 -255 119 -340 150 -425 155 -425 5 0 51 124 221 600 61 173 116 322
120 330 5 8 9 -99 9 -237 l0 -253 -80 0 -80 0 0 -112 c0 -62 3 -170 7 -240 l6
-128 354 0 353 0 0 240 0 240 -65 0 -65 0 0 585 0 585 65 0 65 0 0 240 0 240
-304 0 -303 0 -16 -42 c-9 -24 -64 -176 -122 -338 -58 -162 -119 -326 -135
-365 l-29 -70 -11 30 c-7 17 -38 104 -70 195 -32 91 -86 239 -120 330 -33 91
-69 186 -77 213 l-17 47 -313 0 -313 0 0 -235z m546 30 c14 -33 99 -256 189
-495 90 -239 169 -448 175 -465 l12 -30 11 25 c6 14 19 45 30 69 10 24 38 98
62 165 45 127 110 298 220 581 37 94 69 180 72 193 5 22 5 22 185 20 l179 -3
5 -92 5 -93 -65 0 -66 0 0 -730 0 -730 54 0 c30 0 57 -4 60 -8 3 -5 8 -50 12
-100 l7 -92 -222 0 -222 0 3 98 3 97 40 -2 c22 -2 49 -1 60 2 20 4 20 12 20
619 -1 338 -3 618 -6 621 -3 3 -68 -156 -144 -352 -231 -600 -297 -765 -306
-756 -4 4 -39 91 -77 193 -39 102 -91 237 -115 300 -25 63 -64 165 -87 225
-23 61 -48 124 -56 140 -7 17 -34 84 -59 150 -26 66 -48 122 -51 124 -2 2 -4
-280 -4 -627 l0 -632 49 0 c81 0 81 0 81 -106 l0 -94 -227 2 -228 3 -3 96 -3
96 53 -3 c29 -2 65 -1 81 2 l27 6 -2 651 c-1 359 -3 687 -5 730 l-5 77 -74 0
-74 0 0 95 0 95 191 -2 190 -3 25 -60z"/>
<path d="M9751 14293 c-52 -175 -156 -528 -232 -785 -76 -256 -143 -485 -149
-507 l-11 -41 -109 0 -110 0 0 -240 0 -240 423 0 422 0 -3 240 -3 240 -69 0
c-79 0 -78 -1 -51 75 l18 50 210 3 211 2 18 -52 c9 -29 19 -59 22 -65 3 -10
-14 -13 -67 -13 l-71 0 0 -240 0 -240 423 2 422 3 3 125 c2 69 0 175 -3 237
l-7 112 -106 3 -105 3 -53 175 c-28 96 -127 427 -219 735 -92 308 -179 598
-195 645 l-28 85 -244 3 -244 2 -93 -317z m476 132 c8 -22 120 -391 249 -819
129 -429 236 -781 238 -783 2 -2 43 -5 92 -7 l89 -3 3 -96 3 -97 -281 0 -280
0 0 98 0 97 84 -3 c54 -2 87 1 91 8 7 11 -33 156 -89 320 l-32 95 -295 2
c-161 2 -300 -1 -307 -5 -11 -8 -136 -401 -129 -408 1 -1 36 -4 77 -5 41 -1
81 -4 88 -7 8 -3 12 -32 12 -98 l0 -94 -280 0 -280 0 0 95 0 95 83 0 c52 0 89
5 99 13 8 6 54 145 102 307 48 162 91 306 96 320 10 31 11 33 170 565 73 242
134 444 137 448 2 4 59 6 125 5 l121 -3 14 -40z"/>
<path d="M9966 13858 c-66 -222 -121 -409 -124 -415 -3 -10 50 -13 248 -13
235 0 251 1 246 18 -3 9 -26 89 -52 177 -25 88 -64 219 -86 290 -22 72 -54
178 -71 237 -18 60 -34 108 -37 108 -3 0 -59 -181 -124 -402z m134 43 c0 -18
65 -286 77 -317 4 -12 -12 -14 -87 -13 -65 1 -90 4 -87 12 2 7 22 85 43 175
21 89 42 162 46 162 4 0 8 -9 8 -19z"/>
<path d="M11190 14375 l0 -235 55 -1 c30 -1 61 -2 68 -3 9 -1 13 -127 15 -588
l2 -588 -70 0 -70 0 0 -240 0 -240 370 -2 370 -3 0 243 0 242 -74 0 -75 0 -3
133 c-2 72 -1 173 2 222 l5 90 39 -100 c21 -55 49 -122 62 -150 12 -27 46
-111 74 -185 29 -74 84 -215 123 -312 l71 -178 228 0 228 0 0 825 c0 653 3
825 13 826 6 0 32 1 57 2 l45 2 3 135 c2 74 0 181 -3 238 l-7 102 -354 0 -354
0 0 -238 0 -238 58 3 c31 2 63 0 70 -5 9 -6 12 -57 10 -216 l-3 -207 -99 258
c-116 300 -195 505 -228 585 l-23 58 -302 0 -303 0 0 -235z m556 11 c28 -64
277 -678 483 -1191 l36 -90 5 85 c3 47 4 311 2 588 l-2 502 -60 0 -60 0 0 95
0 95 215 0 215 0 0 -27 c0 -16 3 -58 6 -95 l7 -67 -64 -3 -64 -3 -3 -827 -2
-828 -113 0 -114 0 -12 28 c-7 15 -69 167 -138 337 -274 678 -394 972 -412
1002 -7 13 -10 -160 -11 -574 l0 -592 63 -3 62 -3 3 -97 3 -98 -231 0 -230 0
0 98 0 97 42 -1 c24 -1 55 1 71 3 l27 6 0 728 0 729 -70 0 -70 0 0 95 0 95
191 -2 190 -3 35 -79z"/>
<path d="M12875 14597 c-3 -6 -4 -201 -3 -432 l3 -420 238 -3 237 -2 0 195 0
195 50 0 50 0 0 -585 0 -585 -70 0 -70 0 0 -240 0 -240 380 0 380 0 0 158 c0
86 -3 194 -7 240 l-6 82 -66 0 -66 0 3 585 2 585 45 0 45 0 0 -195 0 -195 240
0 240 0 0 435 0 435 -810 0 c-639 0 -812 -3 -815 -13z m1478 -141 c3 -8 6
-142 7 -297 l0 -282 -67 6 c-38 4 -80 7 -95 7 l-28 0 -2 193 -3 192 -190 0
-190 0 -3 -727 -2 -728 54 0 c87 0 86 1 86 -106 l0 -94 -232 2 -233 3 -3 93
-3 92 33 2 c18 1 49 2 68 2 l35 1 3 733 2 732 -190 0 -190 0 0 -194 c0 -118
-4 -197 -10 -201 -5 -3 -48 -3 -95 1 l-85 7 0 288 0 289 664 0 c569 0 665 -2
669 -14z"/>
<path d="M14793 14471 l-133 -136 0 -784 0 -783 136 -144 136 -144 305 0 304
0 52 58 c28 31 89 95 134 141 l83 83 0 787 -1 786 -134 138 -134 137 -308 -1
-308 -1 -132 -137z m780 -96 l97 -95 0 -732 -1 -733 -94 -97 -95 -98 -244 0
-244 0 -80 83 c-44 45 -81 87 -82 92 -1 6 -8 14 -16 18 -12 7 -14 116 -14 740
l0 732 92 92 93 93 245 0 245 0 98 -95z"/>
<path d="M14990 13552 l0 -729 91 -6 c115 -9 346 -9 377 -1 l22 6 0 647 c0
355 -3 683 -7 729 l-6 82 -238 0 -239 0 0 -728z m340 -7 l0 -585 -95 0 -95 0
0 585 0 585 95 0 95 0 0 -585z"/>
<path d="M15970 14375 l0 -235 48 0 c26 0 57 -3 70 -6 l22 -6 0 -584 0 -584
-70 0 -70 0 0 -240 0 -240 374 0 c332 0 375 2 380 16 8 21 8 277 -1 381 l-6
82 -66 3 -66 3 -1 118 -1 117 34 46 35 46 32 -70 c17 -39 98 -222 180 -406
l150 -335 258 -3 258 -3 0 242 0 242 -116 3 -116 3 -149 335 c-81 184 -156
349 -165 367 -10 19 -13 37 -8 46 5 8 79 106 164 219 l154 204 93 -4 93 -4 0
241 0 241 -345 0 -345 0 0 -229 0 -228 -43 -65 c-67 -100 -150 -208 -159 -208
-4 0 -8 56 -8 125 l0 124 73 3 72 3 3 125 c2 69 0 176 -3 238 l-7 112 -374 0
-374 0 0 -235z m610 0 l0 -94 -67 -3 -68 -3 -3 -377 c-1 -208 1 -378 5 -377 8
0 77 85 190 233 150 197 241 313 278 358 61 72 125 155 125 161 0 3 -24 7 -52
9 l-53 3 0 90 0 90 198 3 c154 2 197 0 198 -10 0 -7 2 -50 5 -95 l6 -83 -49 0
c-26 0 -53 -4 -58 -8 -6 -4 -35 -38 -65 -77 -30 -38 -58 -74 -62 -80 -5 -5
-69 -93 -144 -195 -75 -102 -141 -191 -147 -198 -7 -8 47 -141 184 -455 106
-243 193 -443 194 -445 1 -1 40 -4 86 -6 46 -3 90 -5 97 -5 9 -1 12 -27 12
-96 l0 -95 -132 0 c-73 0 -138 4 -145 8 -7 4 -61 118 -122 252 -207 464 -303
671 -312 668 -7 -4 -105 -119 -182 -215 l-57 -72 0 -220 0 -221 58 -2 c31 0
63 -1 70 -1 9 1 12 -25 12 -98 l0 -99 -235 0 -235 0 0 98 0 99 68 -1 67 -1 3
733 2 732 -70 0 -70 0 0 95 0 95 235 0 235 0 0 -95z"/>
<path d="M9030 12114 c-19 -2 -87 -9 -150 -15 -178 -17 -397 -55 -600 -105
-1725 -424 -3033 -1865 -3289 -3625 -36 -243 -44 -400 -38 -730 5 -325 19
-471 67 -724 219 -1148 886 -2162 1850 -2814 616 -417 1267 -654 2022 -738
210 -23 674 -23 886 1 1373 150 2544 878 3276 2036 337 531 548 1122 638 1783
20 143 23 206 23 542 0 398 -4 459 -51 740 -228 1370 -1115 2569 -2364 3195
-455 228 -920 367 -1460 436 -118 15 -720 28 -810 18z m47 -446 c0 -7 3 -101
6 -208 4 -123 3 -167 -2 -120 -13 119 -21 340 -12 340 4 0 8 -6 8 -12z m631
-10 c-11 -9 -19 -46 -29 -133 -7 -66 -16 -129 -21 -140 -9 -20 -8 -17 13 173
5 50 8 96 5 100 -2 4 7 9 22 10 22 2 24 0 10 -10z m259 -24 c-3 -3 -12 -4 -19
-1 -8 3 -5 6 6 6 11 1 17 -2 13 -5z m-1093 -20 c24 -24 19 -30 -6 -8 -13 10
-25 20 -27 21 -2 2 1 3 7 3 6 0 18 -7 26 -16z m1291 -66 c4 -17 15 -49 25 -72
26 -60 34 -90 22 -82 -6 3 -23 45 -38 94 -15 48 -35 96 -43 107 -16 20 -16 20
6 1 12 -10 25 -32 28 -48z m-1524 19 c-10 -9 -11 -8 -5 6 3 10 9 15 12 12 3
-3 0 -11 -7 -18z m-21 -43 c-6 -14 -10 -54 -10 -90 0 -68 20 -123 64 -174 l21
-25 -27 24 c-61 54 -91 185 -60 264 14 34 25 36 12 1z m-152 -44 c43 -51 76
-176 56 -213 -6 -11 -9 2 -10 41 0 77 -19 126 -68 181 -22 25 -30 37 -16 26
14 -11 30 -27 38 -35z m-262 32 c12 -8 85 -294 74 -287 -4 2 -22 64 -41 136
-18 73 -39 138 -47 145 -14 15 -5 19 14 6z m2374 -26 c0 -11 -81 -230 -91
-244 -13 -22 -12 -17 36 127 22 66 43 120 48 121 4 0 7 -2 7 -4z m-2690 -123
c0 -7 7 -27 15 -45 16 -37 93 -248 105 -290 5 -16 6 -28 2 -28 -4 0 -18 33
-30 73 -13 39 -43 124 -67 187 -24 63 -46 124 -50 135 -7 20 -6 20 9 1 9 -11
16 -26 16 -33z m1043 -21 c7 -42 5 -55 -7 -68 -9 -8 -16 -11 -16 -6 0 5 3 12
7 16 13 13 2 91 -15 104 -16 13 -15 14 3 10 15 -2 22 -15 28 -56z m1321 -49
c16 -49 35 -101 43 -117 8 -15 11 -32 6 -37 -4 -4 -27 48 -50 117 -23 68 -38
124 -34 124 4 0 20 -39 35 -87z m649 40 c-3 -7 -10 -13 -16 -13 -8 0 -8 3 0
11 6 6 9 19 6 28 -4 13 -3 13 5 2 6 -8 8 -20 5 -28z m-1233 -23 c0 -13 -1 -13
-10 0 -5 8 -10 22 -10 30 0 13 1 13 10 0 5 -8 10 -22 10 -30z m1199 -47 c-17
-41 -49 -89 -38 -58 17 47 45 105 51 105 4 0 -2 -21 -13 -47z m199 12 c-3 -3
-9 2 -12 12 -6 14 -5 15 5 6 7 -7 10 -15 7 -18z m-1378 -5 c6 -11 8 -20 6 -20
-3 0 -10 9 -16 20 -6 11 -8 20 -6 20 3 0 10 -9 16 -20z m-2130 -25 c0 -7 20
-54 45 -104 25 -50 45 -93 45 -95 0 -3 18 -42 40 -87 22 -45 40 -83 40 -84 0
-2 -7 -6 -16 -9 -9 -3 -12 -2 -9 5 8 13 -1 37 -86 215 -73 155 -87 190 -70
180 6 -4 11 -13 11 -21z m1535 5 c3 -5 -1 -10 -10 -10 -9 0 -13 5 -10 10 3 6
8 10 10 10 2 0 7 -4 10 -10z m-593 -42 c-8 -8 -9 -4 -5 13 4 13 8 18 11 10 2
-7 -1 -18 -6 -23z m1976 -18 c-14 -43 -28 -47 -15 -5 6 19 14 35 18 35 4 0 3
-14 -3 -30z m-2174 -25 c5 -24 15 -39 29 -45 16 -6 17 -9 5 -9 -9 -1 -25 -4
-35 -7 -14 -6 -16 -4 -6 6 7 8 9 19 4 29 -14 27 -22 73 -13 67 6 -3 13 -22 16
-41z m1741 25 c3 -5 1 -10 -4 -10 -6 0 -11 5 -11 10 0 6 2 10 4 10 3 0 8 -4
11 -10z m753 -87 c-22 -49 -45 -92 -50 -98 -14 -13 -11 -7 37 98 21 48 42 87
46 87 4 0 -11 -39 -33 -87z m-3418 67 c0 -5 -2 -10 -4 -10 -3 0 -8 5 -11 10
-3 6 -1 10 4 10 6 0 11 -4 11 -10z m3069 -60 c-6 -16 -16 -30 -22 -30 -7 0 -7
4 1 12 7 7 12 20 12 30 0 10 4 18 9 18 6 0 6 -12 0 -30z m916 -17 c-10 -73
-27 -179 -46 -290 -10 -62 -19 -115 -19 -118 0 -3 -4 -5 -9 -5 -6 0 -6 13 -1
33 5 17 21 113 35 212 29 193 32 205 40 205 3 0 3 -17 0 -37z m-4115 -3 c0 -5
-2 -10 -4 -10 -3 0 -8 5 -11 10 -3 6 -1 10 4 10 6 0 11 -4 11 -10z m-110 -80
c0 -5 -7 -7 -15 -4 -8 4 -12 10 -9 15 6 11 24 2 24 -11z m102 -80 c38 -29 66
-56 63 -58 -2 -3 -22 10 -43 29 -55 48 -95 79 -104 79 -4 0 -8 5 -8 11 0 13
-2 14 92 -61z m3503 50 c-3 -5 -11 -10 -16 -10 -6 0 -7 5 -4 10 3 6 11 10 16
10 6 0 7 -4 4 -10z m-3641 -125 c42 -33 76 -63 76 -68 0 -7 -145 105 -160 123
-3 4 -14 10 -25 14 -16 6 -17 9 -5 16 9 6 18 3 26 -9 7 -9 46 -44 88 -76z
m4506 31 c0 -2 -8 -10 -17 -17 -16 -13 -17 -12 -4 4 13 16 21 21 21 13z
m-4260 -48 c0 -6 -7 -5 -15 2 -8 7 -15 17 -15 22 0 6 7 5 15 -2 8 -7 15 -17
15 -22z m4273 -141 c42 -78 46 -114 17 -148 l-21 -24 16 32 c22 46 20 56 -25
144 -28 55 -40 90 -39 116 l2 38 6 -45 c4 -25 24 -76 44 -113z m-4211 98 c23
-19 45 -32 49 -29 5 3 9 0 9 -5 0 -6 -3 -11 -6 -11 -7 0 -104 72 -104 77 0 9
16 -1 52 -32z m-134 -75 c33 -25 61 -48 61 -53 1 -4 -33 18 -74 49 -41 31 -75
58 -75 61 0 6 19 -6 88 -57z m-440 43 c-10 -2 -26 -2 -35 0 -10 3 -2 5 17 5
19 0 27 -2 18 -5z m109 -33 c38 -22 59 -43 82 -83 17 -30 30 -63 30 -73 -1
-17 -2 -17 -6 1 -7 28 -54 107 -73 123 -8 7 -37 24 -65 37 -27 14 -43 25 -35
25 8 0 38 -14 67 -30z m5023 -25 c0 -2 -6 -2 -13 1 -7 2 -24 -8 -38 -23 -13
-15 -60 -68 -104 -118 -44 -49 -93 -105 -110 -124 -16 -18 -29 -38 -27 -44 2
-6 -2 -6 -11 1 -11 10 -4 22 42 69 31 32 90 96 131 142 41 46 80 89 87 96 7 7
9 16 5 20 -4 4 3 2 16 -4 12 -6 22 -14 22 -16z m-553 -67 c-3 -7 -5 -2 -5 12
0 14 2 19 5 13 2 -7 2 -19 0 -25z m-4707 -140 c21 -46 54 -77 115 -112 26 -15
27 -16 5 -10 -77 20 -149 119 -155 211 l-4 58 8 -50 c5 -27 18 -71 31 -97z
m5420 56 c8 -8 9 -14 4 -12 -5 1 -28 -17 -52 -41 -24 -24 -45 -41 -48 -39 -2
3 14 21 36 42 22 20 40 43 40 51 0 19 4 19 20 -1z m-5063 -51 c-3 -10 -5 -2
-5 17 0 19 2 27 5 18 2 -10 2 -26 0 -35z m-567 7 c0 -5 -5 -10 -11 -10 -5 0
-7 5 -4 10 3 6 8 10 11 10 2 0 4 -4 4 -10z m5540 -64 c0 -3 -4 -8 -10 -11 -5
-3 -10 -1 -10 4 0 6 5 11 10 11 6 0 10 -2 10 -4z m-72 -74 c-25 -26 -58 -62
-73 -80 -16 -17 -30 -30 -33 -27 -2 2 28 40 68 85 40 44 75 78 78 75 3 -3 -15
-27 -40 -53z m295 52 c3 -4 -15 -23 -41 -44 -26 -21 -92 -80 -147 -133 -55
-52 -103 -93 -108 -90 -4 2 19 26 50 53 32 27 89 78 126 115 38 36 73 65 77
65 5 0 12 9 15 20 6 20 16 25 28 14z m-5376 -60 c-3 -3 -12 -4 -19 -1 -8 3 -5
6 6 6 11 1 17 -2 13 -5z m-262 -100 c83 -15 155 -31 160 -36 6 -6 0 -7 -15 -4
-139 30 -453 86 -460 81 -10 -6 -14 8 -5 17 3 2 42 -3 88 -13 45 -9 150 -29
232 -45z m5230 -14 c3 -5 1 -10 -4 -10 -6 0 -11 5 -11 10 0 6 2 10 4 10 3 0 8
-4 11 -10z m645 -102 c0 -6 -3 -9 -6 -5 -3 3 -34 -16 -68 -42 -72 -56 -92 -68
-82 -53 3 6 36 32 71 58 36 26 65 52 65 57 0 4 5 5 10 2 6 -3 10 -11 10 -17z
m-543 -4 c-3 -3 -12 -4 -19 -1 -8 3 -5 6 6 6 11 1 17 -2 13 -5z m-5337 -119
c-7 -9 -15 -13 -19 -10 -3 3 1 10 9 15 21 14 24 12 10 -5z m5710 8 c0 -5 -17
-19 -38 -33 -20 -14 -39 -27 -42 -30 -3 -3 -24 -20 -46 -38 -43 -33 -64 -40
-64 -21 0 5 4 8 9 5 4 -3 46 23 92 59 92 70 89 68 89 58z m-6162 -150 c28 -20
52 -40 52 -45 0 -10 -49 25 -126 89 -28 24 -54 40 -58 36 -4 -4 -4 0 -1 8 5
13 13 9 43 -18 20 -19 61 -50 90 -70z m6409 75 c-3 -7 -5 -2 -5 12 0 14 2 19
5 13 2 -7 2 -19 0 -25z m-11 -45 c-8 -25 -85 -108 -113 -122 -35 -18 -41 -13
-8 7 43 27 105 93 112 120 3 13 8 21 10 18 3 -2 2 -13 -1 -23z m-6039 3 c-2
-6 -12 -10 -22 -8 -15 3 -175 -19 -242 -34 -13 -2 -23 -1 -23 4 0 5 57 17 128
26 70 10 128 19 130 20 8 8 32 1 29 -8z m-220 -139 c54 -40 69 -57 62 -68 -7
-11 -9 -11 -9 -1 0 16 -9 25 -77 77 -49 36 -59 45 -50 45 2 0 35 -24 74 -53z
m6100 -3 c-3 -3 -12 -4 -19 -1 -8 3 -5 6 6 6 11 1 17 -2 13 -5z m-49 -11 c-10
-2 -28 -2 -40 0 -13 2 -5 4 17 4 22 1 32 -1 23 -4z m-5027 -52 c16 27 20 0 9
-67 -17 -109 -40 -163 -91 -215 -38 -38 -55 -49 -93 -54 -54 -8 -92 10 -102
51 -7 28 14 114 28 114 5 0 7 4 3 9 -3 5 -1 12 5 16 10 6 14 -6 11 -35 -2 -13
0 -13 8 -1 6 10 6 22 0 34 -8 14 -6 24 8 39 47 52 193 129 202 106 2 -6 7 -5
12 3z m3945 -6 c98 -40 121 -54 102 -67 -9 -6 -5 -7 10 -3 13 4 22 2 22 -4 0
-6 12 -21 26 -34 64 -55 86 -157 44 -203 -22 -23 -30 -25 -68 -20 -44 6 -77
27 -64 41 4 5 1 5 -7 0 -17 -10 -78 54 -87 92 -4 15 -13 38 -20 52 -15 29 -19
161 -5 161 5 0 26 -7 47 -15z m-4389 -70 c-4 -8 -1 -17 5 -21 7 -4 8 -3 4 4
-4 7 -3 12 2 12 11 0 55 -61 55 -77 0 -7 3 -13 7 -13 13 0 43 -93 45 -142 1
-27 -3 -65 -10 -85 -16 -46 -56 -95 -73 -88 -7 3 -11 1 -8 -4 3 -5 -1 -11 -9
-15 -20 -7 -79 45 -101 92 -25 52 -34 111 -24 152 23 95 32 120 43 132 7 7 20
25 30 41 18 28 43 38 34 12z m4828 -20 c15 -19 24 -39 19 -46 -5 -8 -3 -9 6
-4 10 6 12 4 7 -9 -4 -9 -3 -15 2 -12 10 7 24 -41 16 -54 -3 -4 -1 -10 5 -12
5 -1 13 -25 16 -52 6 -39 4 -47 -6 -41 -9 6 -11 4 -5 -5 9 -14 -14 -90 -27
-90 -4 0 -8 -6 -8 -13 0 -7 -11 -25 -25 -40 -27 -28 -41 -36 -29 -14 6 10 4
10 -7 0 -17 -16 -43 -17 -33 -1 5 7 3 8 -5 4 -8 -5 -24 5 -42 25 -32 36 -45
71 -33 90 4 7 3 9 -4 6 -24 -15 0 117 34 185 33 65 46 80 72 84 8 2 17 6 20
10 4 4 -1 4 -10 1 -12 -4 -15 -2 -11 9 8 22 20 17 48 -21z m-2214 -56 c90 -28
346 -107 569 -176 223 -69 463 -143 535 -164 71 -22 133 -43 138 -48 9 -9 21
-122 32 -307 l7 -112 -32 -7 c-17 -4 -33 -5 -35 -3 -2 2 -9 76 -15 163 -6 88
-13 172 -16 187 -6 32 43 15 -684 238 -289 89 -557 172 -595 184 l-71 23 -574
-177 c-316 -97 -621 -191 -677 -209 -84 -26 -104 -36 -108 -54 -10 -41 -25
-362 -25 -517 1 -149 11 -331 26 -454 l7 -59 -29 7 c-16 4 -34 13 -40 19 -17
18 -34 278 -34 513 1 208 21 541 34 562 4 6 39 21 79 33 40 11 268 81 507 155
239 74 473 146 520 160 47 15 132 41 190 60 58 18 110 33 116 34 5 0 84 -23
175 -51z m-2118 -266 c61 -29 67 -40 40 -75 -69 -87 -144 -128 -232 -128 -60
1 -157 24 -154 38 1 5 -6 8 -16 5 -14 -4 -18 0 -16 19 3 33 3 32 25 56 12 12
18 22 15 22 -4 0 7 11 23 25 17 14 35 25 41 25 6 0 11 4 11 8 0 8 44 25 95 36
39 9 111 -5 168 -31z m4020 15 c20 -6 37 -15 37 -20 0 -4 6 -8 13 -8 29 0 111
-108 101 -133 -9 -23 -110 -57 -171 -57 -59 0 -133 18 -133 32 0 4 -7 8 -15 8
-17 0 -95 72 -95 88 0 6 6 13 13 16 6 3 2 3 -10 0 -18 -4 -23 -1 -23 14 0 19
20 32 103 67 35 14 118 11 180 -7z m-2029 -93 l27 -85 97 0 97 0 -75 -55 c-54
-39 -80 -53 -95 -48 -25 8 -81 5 -120 -6 -22 -6 -29 -13 -27 -27 1 -10 5 -35
8 -54 5 -33 2 -37 -44 -67 -26 -18 -51 -33 -55 -33 -3 0 7 39 24 87 16 48 25
89 21 92 -5 3 -39 29 -76 56 l-68 50 94 3 94 3 28 84 c15 47 31 85 35 85 4 0
19 -38 35 -85z m2624 -82 c8 -115 -62 -221 -172 -263 -24 -9 -28 -6 -52 32
-29 46 -40 131 -20 157 8 11 8 13 -2 7 -21 -12 7 42 57 111 26 37 51 62 60 60
9 -1 16 4 16 11 0 7 14 21 30 31 l30 19 25 -52 c14 -31 26 -75 28 -113z
m-5346 139 c84 -55 156 -164 166 -249 4 -41 -12 -103 -28 -103 -4 0 -11 -11
-14 -25 -11 -44 -69 -30 -134 30 -18 17 -34 40 -37 53 -2 12 -11 30 -20 38 -9
9 -14 23 -11 30 3 8 0 14 -6 14 -18 0 -3 139 21 188 12 23 25 42 29 42 4 0 19
-8 34 -18z m2227 -281 c-8 -13 -26 -33 -41 -44 l-26 -19 -38 28 -38 29 47 3
c43 3 46 5 58 40 18 57 22 59 37 22 12 -30 12 -39 1 -59z m969 44 l12 -45 51
0 52 0 -40 -29 c-32 -23 -40 -34 -36 -53 4 -22 2 -24 -29 -20 -24 2 -42 -4
-67 -22 -19 -14 -36 -24 -38 -23 -1 2 2 19 7 38 15 51 13 55 -27 81 l-38 23
49 5 c47 5 50 7 65 48 8 23 18 42 21 42 3 0 11 -20 18 -45z m-254 -35 c72 -27
146 -93 146 -128 -1 -42 -24 -95 -61 -141 -30 -39 -37 -42 -67 -37 -41 6 -96
46 -125 92 -12 18 -26 34 -30 34 -5 0 1 -14 13 -31 12 -16 19 -33 15 -37 -12
-12 -158 -7 -198 7 l-39 13 20 22 c11 11 25 31 31 43 14 28 14 108 0 135 -14
26 -9 30 51 36 43 4 52 1 70 -19 l20 -24 21 28 c25 33 57 35 133 7z m-2352
-32 c67 -28 66 -34 -24 -119 -97 -93 -210 -111 -320 -52 -27 15 -48 30 -48 34
0 35 70 129 96 129 7 0 14 5 16 11 2 5 20 11 41 12 20 1 37 6 37 11 0 17 145
-2 202 -26z m4263 23 c-13 -6 -2 -8 34 -8 34 1 56 -4 59 -11 2 -7 10 -12 17
-12 15 0 78 -74 89 -104 9 -26 -21 -58 -48 -50 -15 4 -17 3 -7 -4 14 -10 11
-12 -51 -29 -41 -12 -126 -7 -144 8 -9 8 -25 13 -34 11 -18 -3 -128 97 -148
134 -11 20 -8 23 46 43 62 22 92 28 162 29 32 0 39 -2 25 -7z m-2529 -16 c-25
-19 -32 -19 -40 0 -4 11 2 15 27 15 30 -1 31 -1 13 -15z m-30 -50 c45 -69 107
-120 180 -150 l56 -23 -46 -27 c-38 -22 -59 -27 -109 -27 -35 0 -78 2 -97 6
-29 5 -31 4 -12 -4 42 -18 12 -30 -75 -30 l-86 0 -41 43 c-23 23 -49 58 -58
77 l-17 35 35 7 c54 12 107 43 165 97 30 28 57 50 61 51 4 0 23 -25 44 -55z
m-2359 -107 c44 -46 88 -97 97 -115 37 -75 1 -214 -57 -221 -35 -4 -104 35
-135 77 -23 31 -30 57 -39 146 -6 54 13 155 28 155 6 0 7 5 4 10 -3 6 -1 10 5
10 6 0 8 5 5 10 -3 6 -2 10 2 10 5 0 45 -37 90 -82z m5487 50 c-2 -3 1 -8 7
-10 22 -7 41 -198 20 -198 -5 0 -7 -9 -4 -19 6 -23 -10 -53 -51 -99 -34 -37
-54 -50 -97 -62 -26 -8 -32 -5 -55 26 -27 34 -31 51 -35 130 -3 44 32 115 54
111 7 -1 11 4 10 10 -4 18 57 74 71 66 6 -3 8 -2 3 2 -4 5 7 23 24 41 25 25
34 30 44 21 7 -7 11 -15 9 -19z m-2197 -15 c3 -7 -3 -9 -16 -6 -12 3 -21 10
-21 15 0 13 32 6 37 -9z m94 -64 c16 -32 -7 -96 -41 -114 -31 -16 -108 -19
-175 -6 l-40 7 41 7 c71 12 154 88 154 142 0 14 3 14 25 -1 14 -9 30 -25 36
-35z m1106 -25 c4 -11 13 -14 30 -9 28 7 96 -12 88 -24 -2 -5 -27 -11 -54 -14
-62 -7 -121 -37 -155 -78 -15 -17 -28 -30 -29 -28 -1 2 -8 14 -15 27 -11 20
-11 27 2 47 9 14 16 38 16 54 0 32 10 37 78 40 21 1 35 -4 39 -15z m-2417 -79
c22 -23 22 -25 4 -25 -29 0 -48 16 -41 34 8 21 9 20 37 -9z m2630 -4 c48 -35
35 -88 -30 -121 -51 -26 -89 -25 -153 2 l-52 23 35 6 c30 5 26 6 -33 13 -57 7
-66 11 -55 23 15 18 103 64 143 74 44 12 116 2 145 -20z m-4144 -25 c8 -12 13
-13 24 -3 10 10 12 8 6 -6 -3 -10 -6 -25 -6 -33 0 -9 -4 -12 -10 -9 -5 3 -12
-7 -16 -22 -7 -29 -52 -80 -67 -75 -5 1 -6 -2 -2 -7 3 -6 -14 -20 -37 -33 -36
-18 -58 -22 -138 -21 -114 0 -147 11 -147 47 0 14 3 26 8 26 5 0 6 6 3 13 -2
7 6 25 20 40 14 15 22 27 18 27 -3 0 4 7 16 16 12 8 26 12 32 9 5 -3 7 1 4 9
-4 11 3 17 23 21 15 4 39 10 53 15 42 14 203 4 216 -14z m4490 11 c28 -7 67
-23 86 -36 35 -24 88 -111 88 -145 0 -24 -45 -38 -135 -39 -105 -3 -148 8
-190 45 -29 25 -35 37 -35 72 0 22 -4 55 -9 73 -9 31 -8 32 22 36 64 8 123 6
173 -6z m-1119 -32 c47 -36 63 -37 63 -4 0 25 17 25 25 -1 7 -21 -11 -61 -58
-129 -16 -24 -37 -74 -47 -110 -9 -37 -30 -89 -45 -116 -25 -43 -30 -46 -39
-30 -26 43 -57 72 -105 95 -28 14 -51 32 -51 40 0 30 30 60 60 60 28 0 131 19
138 25 2 2 -12 31 -32 65 l-36 61 32 39 c18 22 37 40 41 40 5 0 29 -16 54 -35z
m-1983 -27 c10 -38 7 -51 -9 -44 -30 11 -10 -40 33 -86 28 -30 26 -33 -12 -18
-33 12 -33 8 5 -35 17 -19 26 -35 20 -35 -6 0 -8 -7 -5 -15 9 -23 -6 -18 -66
24 l-55 38 -1 64 c0 59 2 67 32 97 38 38 50 40 58 10z m2361 -20 c20 -17 44
-47 55 -67 21 -41 44 -121 37 -128 -6 -6 -64 23 -96 48 -13 11 -32 19 -42 19
-19 0 -79 46 -79 61 0 5 7 9 15 9 11 0 12 5 5 24 -11 31 12 66 45 66 13 0 40
-14 60 -32z m133 -26 c2 -8 -9 -12 -32 -12 -32 0 -36 3 -36 25 0 24 1 25 32
12 17 -7 33 -18 36 -25z m-818 -60 c0 -10 -7 -28 -17 -41 -9 -14 -16 -43 -16
-68 0 -37 -3 -44 -18 -40 -12 3 -19 -3 -24 -20 -9 -38 3 -46 56 -40 l48 6 10
-50 c13 -57 14 -129 3 -145 -21 -32 -95 -46 -106 -19 -7 19 -26 19 -26 0 0
-26 -47 -48 -87 -42 -54 9 -62 23 -44 77 13 36 20 44 36 41 14 -2 11 3 -13 24
-37 31 -44 60 -12 50 11 -4 20 -2 20 4 0 6 -9 11 -19 11 -10 0 -34 14 -51 30
l-33 31 33 34 c18 18 29 38 26 44 -4 5 2 15 13 20 11 6 23 20 26 31 3 11 12
20 18 20 7 0 39 14 72 30 69 35 105 39 105 12z m1175 -82 c3 -5 2 -10 -4 -10
-5 0 -13 5 -16 10 -3 6 -2 10 4 10 5 0 13 -4 16 -10z m-5016 -41 c52 33 286
-141 255 -190 -4 -7 -3 -10 4 -6 24 15 26 -139 3 -167 -16 -19 -94 -19 -141 1
-47 19 -110 81 -103 101 5 11 3 13 -7 7 -10 -6 -12 -3 -8 13 4 13 2 20 -3 16
-6 -3 -7 6 -4 23 5 19 4 24 -3 14 -12 -16 -18 9 -27 116 -7 70 2 116 14 80 4
-11 11 -13 20 -8z m5857 -56 c-12 -137 -38 -207 -94 -261 -43 -41 -67 -52
-128 -58 -74 -8 -86 4 -92 84 -9 121 89 240 236 289 37 12 71 22 76 22 5 1 6
-33 2 -76z m-914 20 c10 -9 18 -29 18 -45 0 -23 -6 -32 -31 -42 -20 -9 -27
-15 -18 -18 11 -4 11 -8 2 -18 -10 -11 -23 -11 -68 -1 -30 7 -53 17 -50 22 4
5 -5 9 -18 9 -13 0 -47 7 -76 16 -61 18 -58 29 14 64 85 41 190 47 227 13z
m-4247 -25 c-4 -24 -10 -47 -13 -52 -2 -5 -6 -25 -7 -44 -1 -20 -7 -38 -14
-40 -6 -2 -11 -9 -11 -16 0 -6 -7 -22 -16 -35 -13 -18 -19 -20 -26 -10 -8 11
-9 11 -5 -1 3 -9 0 -23 -7 -31 -15 -20 -86 -63 -86 -52 0 4 -4 2 -8 -5 -10
-15 -95 -25 -136 -16 l-28 6 4 72 c3 64 7 76 41 120 20 27 37 46 37 43 0 -4
13 5 28 20 38 35 157 82 210 82 l44 1 -7 -42z m4591 7 c38 -15 78 -37 89 -49
11 -12 18 -17 15 -11 -3 6 5 -1 18 -15 64 -70 92 -188 55 -225 -31 -32 -223 6
-209 41 3 7 -2 15 -10 18 -10 4 -13 2 -8 -7 3 -6 -6 2 -21 18 -42 47 -56 81
-54 137 1 30 -6 70 -16 92 l-16 39 43 -5 c25 -3 75 -17 114 -33z m-3075 -2
c15 -15 24 -126 12 -148 -10 -17 -12 -16 -28 8 -25 39 -37 33 -19 -8 l15 -36
-30 16 c-53 27 -54 16 -4 -29 l48 -44 5 -81 c3 -45 5 -81 4 -81 0 0 -15 7 -33
16 -21 10 -44 14 -63 10 -19 -4 -37 -1 -46 6 -12 11 -16 10 -20 0 -7 -21 -64
-83 -70 -77 -12 12 -42 121 -42 152 0 24 8 40 30 59 34 31 31 44 -10 44 -26 0
-31 5 -42 43 -7 23 -12 44 -13 47 0 3 14 23 32 45 30 36 34 38 60 26 21 -10
28 -10 31 -1 3 7 13 21 24 32 17 17 30 20 84 16 35 -2 69 -9 75 -15z m402 -23
c3 -12 -1 -23 -10 -29 -13 -7 -12 -11 8 -26 l24 -17 -25 7 c-33 9 -47 24 -55
58 -7 25 -5 27 23 27 21 0 31 -6 35 -20z m647 0 c0 -26 -43 -70 -67 -69 -14 0
-13 2 5 9 26 11 29 25 7 34 -25 9 0 46 30 46 19 0 25 -5 25 -20z m573 13 c-7
-2 -21 -2 -30 0 -10 3 -4 5 12 5 17 0 24 -2 18 -5z m-1143 -41 c0 -11 -22 -32
-32 -32 -5 0 -4 9 2 20 11 20 30 28 30 12z m460 -7 c0 -8 5 -15 12 -15 6 0 9
-2 6 -5 -3 -3 -13 -3 -22 1 -17 7 -22 34 -6 34 6 0 10 -7 10 -15z m881 -64
c12 -11 20 -93 9 -86 -5 3 1 -15 15 -42 15 -27 22 -49 16 -51 -6 -2 1 -19 15
-37 l25 -34 -32 -17 c-30 -15 -34 -15 -61 1 -16 9 -38 15 -48 12 -21 -5 -21
-3 -35 105 -5 41 -4 47 15 53 15 5 20 15 21 46 1 21 3 44 4 49 1 6 3 13 4 16
1 6 43 -5 52 -15z m-1228 -78 c4 -3 -2 -13 -14 -21 -23 -16 -34 -10 -26 13 7
15 28 20 40 8z m244 -8 c8 -23 -3 -29 -26 -13 -21 15 -18 28 6 28 7 0 16 -7
20 -15z m2063 11 c0 -3 -4 -16 -10 -30 -9 -23 -12 -24 -41 -14 l-32 11 34 18
c34 18 49 23 49 15z m-2172 -64 c-13 -15 -60 -13 -65 3 -1 6 15 10 37 10 32 1
37 -2 28 -13z m858 -16 c23 6 24 4 24 -50 0 -31 -4 -56 -10 -56 -21 0 -119 42
-130 55 -10 13 -7 16 19 21 19 4 39 18 49 32 14 21 18 23 20 9 3 -13 10 -15
28 -11z m-2031 -13 l40 -6 -43 -12 c-23 -7 -66 -31 -95 -53 -29 -22 -63 -43
-77 -47 l-25 -7 24 26 c31 33 18 34 -21 1 -36 -30 -42 -31 -68 -5 -23 23 -18
41 19 74 44 40 117 49 246 29z m3133 -33 c63 -39 60 -106 -6 -131 -60 -24
-194 12 -262 69 l-25 21 60 1 c70 2 123 18 65 20 l-35 1 40 19 c54 25 122 25
163 0z m-4214 -81 c-2 -104 -10 -151 -33 -199 -46 -94 -112 -142 -199 -144
l-57 -1 -3 106 c-2 86 0 110 13 122 8 9 15 20 15 25 0 16 62 82 71 76 5 -3 8
0 7 7 -4 17 101 72 124 66 10 -3 16 -1 13 3 -3 5 7 7 22 6 27 -3 28 -5 27 -67z
m4579 37 c93 -45 175 -157 165 -226 -3 -17 -1 -30 4 -30 5 0 7 -8 3 -19 -3
-10 -6 -35 -7 -55 -1 -20 -6 -40 -12 -45 -9 -7 -66 -7 -115 0 -26 4 -120 108
-141 156 -15 34 -19 61 -17 104 3 32 1 61 -3 66 -4 4 -5 24 -3 44 5 34 7 36
40 33 19 -1 58 -14 86 -28z m-1558 -6 c31 -14 75 -25 118 -28 49 -3 65 -7 58
-16 -5 -6 -21 -40 -35 -77 -15 -36 -49 -92 -78 -127 -48 -57 -55 -62 -93 -62
-51 1 -139 47 -143 75 -2 12 13 41 35 69 32 41 39 46 49 32 9 -13 11 -2 10 56
-1 73 7 113 22 106 4 -2 30 -15 57 -28z m-1518 -42 c46 -32 42 -53 -13 -78
-26 -11 -50 -20 -54 -20 -10 0 -23 98 -15 110 10 17 47 11 82 -12z m1975 -49
c18 -23 32 -46 31 -50 -2 -5 12 -9 30 -9 38 0 77 -10 77 -19 -1 -3 -18 -18
-40 -33 -28 -20 -42 -38 -50 -67 -6 -22 -15 -43 -21 -46 -13 -9 -39 13 -50 43
l-9 24 -34 -22 -34 -21 -26 36 c-14 19 -37 51 -51 70 -22 29 -24 38 -15 56 11
19 119 77 147 79 7 0 27 -19 45 -41z m-2501 -44 c7 -30 10 -57 8 -59 -2 -2
-18 -7 -35 -10 -27 -6 -32 -4 -38 16 -10 40 -7 61 16 85 12 13 25 23 29 23 4
0 13 -25 20 -55z m2947 39 c63 -8 125 -45 145 -87 23 -47 16 -84 -17 -93 -34
-8 -61 2 -103 39 -46 41 -111 175 -73 152 6 -4 27 -9 48 -11z m462 -20 c0 -9
-44 14 -48 25 -3 8 5 7 22 -4 14 -10 26 -19 26 -21z m805 -12 c-10 -61 -36
-142 -47 -142 -5 0 -7 -4 -3 -9 13 -22 -97 -151 -130 -151 -7 0 -15 -5 -17
-10 -4 -12 -116 -32 -140 -25 -20 7 -30 43 -22 82 4 24 8 55 13 100 0 6 19 34
41 62 46 57 124 103 183 107 20 1 43 6 50 12 13 11 58 20 70 14 4 -2 5 -20 2
-40z m-5816 18 c100 -28 143 -52 183 -102 44 -55 62 -100 54 -139 -3 -16 -2
-28 2 -25 10 6 8 -56 -3 -73 -6 -10 -26 -12 -77 -9 -56 4 -78 11 -111 35 -49
34 -119 122 -112 141 3 7 0 10 -6 7 -6 -4 -9 -1 -8 6 1 8 -3 27 -10 43 -6 16
-9 36 -7 43 3 8 1 11 -4 8 -5 -3 -9 9 -8 28 1 19 -2 39 -6 45 -11 18 29 15
113 -8z m1151 1 c0 -12 -9 -21 -26 -25 -32 -8 -38 -4 -29 23 9 28 55 29 55 2z
m3808 -38 c25 -39 17 -68 -13 -43 -25 21 -29 4 -11 -44 17 -44 17 -46 -5 -76
-14 -19 -32 -30 -47 -30 -13 0 -32 -5 -43 -10 -14 -8 -27 -7 -49 5 -31 16 -40
35 -16 35 14 0 62 50 92 95 13 19 14 31 6 54 -9 27 -8 29 21 39 18 5 34 10 37
11 3 0 15 -16 28 -36z m-2783 -21 c13 -20 27 -52 31 -69 6 -30 5 -32 -27 -35
l-34 -3 56 -33 c64 -36 129 -103 129 -130 0 -15 -14 -21 -82 -31 -112 -17
-157 -31 -173 -55 -17 -23 -16 -24 -44 31 -49 97 -66 237 -35 282 22 31 102
81 131 81 15 0 31 -12 48 -38z m605 11 c0 -18 -28 -53 -42 -53 -11 0 -10 13 2
44 11 29 40 35 40 9z m54 8 c7 -11 -19 -63 -27 -54 -14 13 -7 63 7 63 8 0 17
-4 20 -9z m60 -7 c3 -8 1 -25 -6 -37 -11 -21 -11 -21 -19 -2 -12 32 -10 55 5
55 8 0 17 -7 20 -16z m60 -16 c5 -15 6 -31 2 -35 -9 -9 -45 36 -46 55 0 24 34
8 44 -20z m-1914 3 c0 -11 -31 -24 -39 -16 -3 3 1 10 9 15 19 12 30 12 30 1z
m1680 -9 c0 -10 -6 -26 -13 -36 -13 -18 -14 -18 -21 -1 -9 24 2 55 20 55 8 0
14 -8 14 -18z m286 -6 c7 -28 -2 -49 -17 -41 -12 8 -12 65 1 65 5 0 12 -11 16
-24z m-1345 -93 c-43 -86 -96 -147 -136 -157 -29 -7 -93 16 -101 38 -10 25 25
76 74 108 42 27 44 30 17 24 -28 -6 -29 -5 -11 9 11 8 40 22 65 31 25 8 64 24
86 34 54 24 55 10 6 -87z m1449 76 c0 -35 -40 -124 -71 -159 -28 -32 -30 -33
-24 -10 3 14 9 63 12 110 l6 85 38 -3 c30 -3 39 -8 39 -23z m-2150 6 c0 -8 -6
-15 -14 -15 -7 0 -20 -10 -29 -22 -19 -29 -26 -22 -20 20 5 28 9 32 34 32 19
0 29 -5 29 -15z m1705 -42 c0 -32 3 -80 8 -108 l8 -50 -22 25 c-27 31 -79 143
-79 170 0 17 7 20 43 20 l42 0 0 -57z m1565 -56 c-158 -565 -546 -1044 -1184
-1462 l-147 -97 -172 116 c-361 241 -631 491 -831 770 l-57 79 32 19 c26 16
34 17 40 6 29 -51 174 -231 259 -321 183 -192 468 -421 693 -556 l37 -23 68
43 c279 175 549 402 732 615 188 219 300 401 400 654 83 213 89 224 123 246
17 12 33 21 34 19 2 -1 -10 -49 -27 -108z m113 92 c23 -12 48 -26 55 -32 8 -6
21 -12 30 -13 10 -1 28 -6 41 -10 17 -5 22 -4 17 4 -5 8 2 12 22 12 29 0 29
-1 36 -67 3 -38 9 -80 12 -95 5 -23 2 -28 -20 -34 -29 -7 -54 7 -117 63 -33
30 -40 33 -45 19 -5 -14 -11 -10 -31 19 -27 40 -31 41 -49 18 -12 -16 -14 -17
-29 -2 -15 14 -15 21 1 77 10 34 21 62 26 62 5 0 28 -10 51 -21z m-2933 -9 c0
-5 -8 -10 -17 -10 -15 0 -16 2 -3 10 19 12 20 12 20 0z m-70 -33 c0 -22 -11
-26 -37 -14 -23 10 -23 12 -6 18 28 12 43 10 43 -4z m-486 -28 c-25 -27 -37
-23 -18 6 9 14 20 22 26 19 5 -3 2 -14 -8 -25z m371 15 c15 -10 25 -12 25 -5
0 6 5 11 10 11 6 0 10 -9 10 -20 0 -21 -24 -28 -35 -10 -11 18 -35 11 -35 -10
0 -30 -32 -25 -71 11 l-34 31 42 -6 c24 -4 44 -2 48 4 8 13 11 13 40 -6z
m2510 -180 l-10 -175 -104 -39 c-206 -78 -369 -165 -603 -321 l-118 -79 -122
83 c-68 46 -174 112 -236 147 -62 34 -111 64 -109 66 2 2 30 -1 63 -6 83 -14
94 -13 94 8 0 10 6 27 14 37 13 17 15 17 43 -14 16 -19 41 -35 55 -36 15 -2
33 -7 40 -11 7 -4 28 -10 48 -14 34 -5 35 -7 38 -53 l3 -47 76 40 c65 34 86
40 137 40 73 0 135 16 143 36 5 14 -15 113 -33 159 -6 15 2 12 31 -14 21 -18
53 -40 71 -47 43 -18 144 -19 144 -1 0 8 21 12 72 12 l73 0 33 49 c50 75 50
88 4 141 -38 43 -62 85 -76 131 -6 20 -3 20 76 16 l83 -4 34 36 c19 20 37 36
40 36 4 0 2 -79 -4 -176z m-2670 156 c3 -5 -1 -10 -9 -10 -9 0 -16 5 -16 10 0
6 4 10 9 10 6 0 13 -4 16 -10z m-35 -14 c0 -19 -32 -30 -41 -14 -6 9 -1 15 14
20 12 3 23 6 25 7 1 1 2 -5 2 -13z m3588 -11 c12 -14 28 -25 36 -25 16 0 66
-38 66 -51 0 -5 -9 -9 -19 -9 -11 0 -28 -12 -39 -27 -19 -26 -21 -27 -28 -8
-3 11 -17 44 -30 74 -13 29 -24 57 -24 62 0 16 16 9 38 -16z m-3671 -1 c6 -19
-24 -24 -53 -9 -23 11 -24 14 -7 18 28 8 56 3 60 -9z m-107 -14 c0 -5 -7 -10
-16 -10 -8 0 -12 5 -9 10 3 6 10 10 16 10 5 0 9 -4 9 -10z m395 0 c-9 -15 -45
-32 -45 -22 0 5 10 14 23 20 29 14 29 14 22 2z m601 -92 c-8 -83 -25 -136 -63
-190 -49 -72 -129 -102 -153 -58 -17 31 -3 58 50 96 44 31 80 72 80 91 0 4
-15 -7 -32 -24 -37 -34 -78 -63 -90 -63 -22 0 -4 43 29 67 70 54 130 113 149
148 15 29 20 32 27 18 6 -9 7 -47 3 -85z m1654 48 c7 -25 34 -72 62 -107 56
-68 56 -75 2 -138 l-28 -34 -88 5 c-87 5 -99 3 -77 -19 22 -22 -38 -27 -88 -8
-40 16 -123 86 -123 105 0 4 18 12 39 19 22 6 62 27 90 46 l51 34 0 -32 c0
-29 2 -27 29 28 28 58 94 145 110 145 5 0 14 -20 21 -44z m-1803 -67 c5 -27 3
-29 -26 -29 -48 0 -60 36 -29 84 l23 36 13 -31 c7 -17 16 -44 19 -60z m-999
36 c0 -25 3 -63 7 -83 5 -32 -4 -119 -20 -182 -2 -8 -4 -19 -4 -23 -1 -5 -5
-5 -11 -2 -6 3 -7 -1 -4 -9 3 -9 1 -16 -5 -16 -6 0 -11 -7 -11 -16 0 -10 -6
-14 -14 -11 -10 4 -13 1 -10 -7 5 -14 -82 -63 -93 -53 -3 3 -16 2 -28 -3 -21
-8 -27 -4 -46 27 -18 28 -22 52 -23 112 -1 66 3 82 27 123 32 54 136 150 154
143 7 -2 12 1 10 7 -2 12 39 38 60 38 7 0 11 -17 11 -45z m2062 21 c0 -20 43
-55 77 -62 42 -8 98 19 113 57 7 16 15 28 17 25 9 -8 -25 -72 -51 -95 -52 -49
-117 -28 -157 51 -21 42 -24 52 -9 43 6 -3 10 -12 10 -19z m2313 6 c15 -10 25
-21 21 -24 -3 -3 0 -9 7 -14 8 -4 10 -3 5 4 -17 28 15 8 72 -44 83 -75 117
-146 108 -226 -3 -32 -15 -76 -25 -97 l-20 -39 -46 9 c-50 9 -109 45 -100 60
4 5 -2 6 -11 2 -11 -4 -15 -3 -10 5 3 6 -2 16 -13 21 -33 18 -54 136 -46 259
5 65 11 102 19 102 6 0 23 -8 39 -18z m-3883 0 c0 -5 -11 -19 -25 -32 -20 -19
-25 -20 -25 -7 0 17 26 47 41 47 5 0 9 -4 9 -8z m-85 -22 c4 -6 11 -8 16 -5 8
5 9 -3 9 -42 0 -5 -6 -8 -14 -8 -7 0 -20 -6 -29 -13 -21 -18 -32 2 -12 22 12
12 14 20 5 36 -8 16 -8 20 4 20 8 0 18 -5 21 -10z m-62 -61 c5 -34 2 -38 -34
-62 -21 -14 -39 -22 -39 -17 0 4 -3 15 -6 24 -4 11 -1 16 10 16 10 0 16 9 16
24 0 14 10 32 22 40 26 18 24 20 31 -25z m1663 -19 c5 -14 7 -43 4 -65 l-5
-40 -22 23 c-25 24 -29 55 -13 98 11 29 20 25 36 -16z m344 -25 c0 -34 -24
-75 -44 -75 -9 0 -11 15 -5 59 3 32 10 65 14 72 12 18 35 -18 35 -56z m-1091
11 c19 -79 14 -184 -13 -241 -30 -63 -60 -95 -91 -95 -42 0 -62 73 -28 101 26
22 73 91 73 108 0 10 -5 8 -17 -9 -23 -35 -65 -80 -75 -80 -18 0 -6 48 18 71
40 37 80 100 95 147 6 23 15 42 19 42 4 0 13 -20 19 -44z m514 -1 c23 -20 52
-38 64 -41 17 -5 23 -13 23 -34 0 -37 17 -82 36 -96 13 -10 12 -16 -8 -47 -18
-28 -30 -36 -53 -36 -44 -1 -150 26 -195 49 -36 19 -39 23 -34 53 11 58 43
118 81 153 20 19 39 34 41 34 2 0 22 -16 45 -35z m-136 -13 c-27 -30 -57 -105
-57 -146 0 -32 -3 -37 -17 -31 -10 3 -53 18 -95 33 -43 15 -80 32 -82 39 -9
24 11 68 37 81 14 7 66 19 114 26 122 19 119 19 100 -2z m513 -40 c0 -26 -25
-5 -28 24 -2 28 -2 28 13 10 8 -11 15 -26 15 -34z m40 18 c0 -16 -4 -30 -10
-30 -11 0 -14 43 -3 53 11 12 13 8 13 -23z m-127 -20 c3 -11 2 -20 -2 -20 -14
0 -31 24 -31 43 0 16 3 17 14 8 8 -6 16 -21 19 -31z m35 15 c14 -29 -2 -34
-18 -6 -12 24 -13 31 -2 31 5 0 14 -11 20 -25z m142 12 c0 -8 -9 -22 -20 -32
-23 -21 -25 -16 -8 20 12 27 28 34 28 12z m28 -38 c-18 -12 -22 5 -6 33 l13
23 3 -24 c2 -13 -2 -27 -10 -32z m-2027 15 c11 -13 8 -19 -17 -39 -16 -14 -32
-24 -35 -25 -12 0 -18 29 -8 35 5 4 7 10 4 15 -3 5 3 13 12 19 24 14 28 14 44
-5z m357 -16 c-16 -5 -28 -14 -28 -20 0 -5 -9 -7 -20 -3 -24 8 -80 -18 -111
-51 -12 -13 -32 -24 -43 -24 -18 0 -17 3 9 30 16 17 33 30 39 30 5 0 18 8 29
17 10 10 42 20 70 24 76 9 85 9 55 -3z m142 -3 c-7 -9 -15 -13 -17 -11 -7 7 7
26 19 26 6 0 6 -6 -2 -15z m-36 -34 c3 -5 -1 -11 -9 -15 -9 -3 -15 0 -15 9 0
16 16 20 24 6z m-329 -36 c-22 -19 -43 -34 -47 -35 -5 0 -8 -9 -8 -19 0 -11
-4 -23 -10 -26 -6 -4 -10 6 -10 24 0 23 9 36 42 60 58 43 83 40 33 -4z m270
-12 c6 -21 -1 -28 -26 -25 -4 1 -17 -10 -29 -23 -32 -34 -42 -31 -38 13 3 32
6 37 28 37 15 0 28 7 33 19 9 22 21 13 32 -21z m-515 17 c8 -5 10 -10 4 -10
-5 0 -20 -9 -33 -21 -23 -22 -39 -20 -25 3 5 7 9 16 10 21 1 4 2 9 3 12 2 8
25 5 41 -5z m2339 -86 c5 -32 8 -61 6 -62 -2 -2 -48 -10 -102 -17 -54 -7 -119
-22 -145 -33 -40 -18 -47 -19 -52 -5 -9 23 2 33 35 33 17 0 40 5 52 12 12 6
31 12 41 13 11 1 32 17 48 36 103 123 101 122 117 23z m-2958 59 c6 -6 17 -9
23 -7 13 5 75 -27 117 -61 38 -30 46 -52 48 -129 l2 -69 -83 6 c-167 11 -173
13 -219 43 -24 17 -43 38 -43 46 1 9 -4 14 -10 12 -7 -3 -21 12 -31 33 -37 78
-45 99 -49 120 -5 22 -3 22 114 20 75 -1 123 -6 131 -14z m5542 3 c3 -8 -1
-22 -8 -33 -8 -10 -15 -27 -15 -38 -1 -45 -109 -171 -138 -160 -7 3 -11 1 -8
-4 9 -13 -28 -20 -151 -27 l-110 -7 -7 28 c-9 34 11 130 30 150 8 8 21 12 28
9 8 -3 17 -1 21 5 4 7 0 8 -11 4 -33 -12 -4 17 39 39 63 34 121 45 228 47 75
1 98 -2 102 -13z m-4790 -26 c-3 -11 -9 -20 -14 -20 -5 0 -9 -9 -9 -20 0 -11
-7 -20 -15 -20 -8 0 -15 9 -15 19 0 11 -3 27 -7 37 -5 13 -3 16 9 12 8 -4 21
-2 29 3 22 14 28 11 22 -11z m-120 -34 c-14 -27 -17 -29 -23 -12 -6 17 -7 18
-13 3 -7 -18 -47 -24 -47 -8 0 17 45 46 73 47 l26 2 -16 -32z m350 -4 c-2 -14
2 -20 11 -16 23 9 28 -14 6 -26 -15 -8 -20 -8 -20 2 0 6 -6 3 -14 -8 -20 -27
-28 -14 -20 35 5 31 11 41 23 39 10 -2 15 -12 14 -26z m-325 -15 c-1 -2 2 -10
9 -18 14 -18 22 -52 30 -142 5 -53 3 -71 -8 -78 -8 -5 -9 -9 -2 -9 14 0 -9
-81 -34 -119 -36 -55 -142 -129 -164 -115 -5 3 -9 0 -9 -5 0 -6 -9 -11 -20
-11 -22 0 -44 34 -36 56 4 10 2 12 -6 8 -8 -5 -9 -2 -5 9 3 10 2 17 -3 17 -24
0 -30 156 -7 208 14 33 90 112 107 112 7 0 10 3 7 7 -11 11 30 33 50 27 15 -5
15 -4 3 5 -12 8 -12 11 3 17 9 3 24 4 32 0 9 -3 22 5 32 18 10 13 20 23 21 21
2 -2 2 -5 0 -8z m4023 -5 c13 -10 32 -22 42 -25 10 -4 15 -11 12 -17 -3 -5 0
-7 9 -4 14 5 100 -72 138 -125 28 -39 40 -117 28 -178 -6 -29 -15 -53 -20 -53
-5 0 -6 -7 -3 -17 4 -11 3 -14 -5 -9 -7 4 -10 2 -6 -7 2 -7 -3 -24 -13 -36
-15 -18 -24 -21 -47 -15 -21 5 -25 9 -14 16 9 6 6 7 -9 3 -42 -12 -163 95
-149 131 3 8 2 13 -3 10 -15 -10 -41 84 -41 150 0 72 17 164 31 164 5 0 9 7 9
15 0 20 12 19 41 -3z m-3771 -51 c0 -3 -11 -14 -24 -23 -24 -17 -24 -17 -28
18 -2 19 -2 36 0 39 5 5 52 -25 52 -34z m300 22 c0 -22 -17 -49 -25 -41 -8 8
5 58 16 58 5 0 9 -8 9 -17z m-47 -8 c-3 -9 -8 -14 -10 -11 -3 3 -2 9 2 15 9
16 15 13 8 -4z m-43 -69 c-8 -8 -13 -7 -19 2 -6 10 -13 7 -29 -15 -23 -32 -35
-26 -35 15 0 25 -4 28 -26 25 -21 -3 -23 -2 -10 6 9 6 32 11 50 13 19 1 43 8
54 15 18 13 20 11 23 -18 2 -17 -2 -37 -8 -43z m155 64 c-3 -5 -10 -10 -16
-10 -5 0 -9 5 -9 10 0 6 7 10 16 10 8 0 12 -4 9 -10z m-439 -55 c-26 -19 -42
-19 -26 0 7 8 20 15 29 15 13 -1 13 -3 -3 -15z m109 -17 c-9 -41 -8 -40 -39
-32 -27 6 -36 24 -13 24 8 0 22 9 32 20 25 27 28 25 20 -12z m420 22 c3 -5 -3
-10 -14 -10 -11 0 -23 5 -26 10 -3 6 3 10 14 10 11 0 23 -4 26 -10z m-66 -35
l23 -25 -32 -6 c-22 -5 -28 -9 -18 -15 10 -7 9 -9 -3 -9 -9 0 -22 -7 -29 -15
-14 -17 -30 -20 -30 -5 0 6 8 10 18 11 13 0 14 2 2 6 -16 7 -40 29 -40 37 0 3
14 6 32 6 17 0 28 3 25 7 -7 6 11 33 22 33 3 0 17 -12 30 -25z m-479 -25 c-6
-11 -17 -20 -25 -20 -19 0 -19 5 1 24 22 23 37 20 24 -4z m760 -20 c0 -17 -61
-43 -73 -31 -15 15 -27 14 -27 -4 0 -18 -12 -19 -28 -3 -16 16 37 40 56 25 8
-6 12 -6 12 1 0 10 19 18 48 21 6 0 12 -3 12 -9z m-160 -67 c0 -10 -6 -12 -20
-8 -14 4 -20 2 -20 -8 0 -28 -33 -29 -59 -2 -18 18 -21 25 -11 26 43 2 62 7
72 17 14 14 38 -2 38 -25z m-280 -17 c-19 -7 -36 -11 -38 -10 -2 1 0 13 4 28
6 25 6 25 37 9 l31 -16 -34 -11z m134 -1 c3 -8 0 -15 -7 -16 -9 0 -9 -2 1 -6
11 -4 18 -43 8 -43 -3 0 -22 10 -42 22 -37 22 -38 22 -13 29 13 4 20 8 14 8
-5 1 -3 6 5 11 21 13 27 12 34 -5z m-100 -62 c-1 -16 -2 -30 -3 -32 -1 -3 -12
6 -26 19 -24 22 -24 25 -8 31 32 13 40 9 37 -18z m-114 7 c-20 -13 -53 -13
-45 0 3 6 18 10 33 10 21 0 24 -2 12 -10z m50 -9 c0 -5 -9 -11 -20 -14 -11 -3
-20 -1 -20 3 0 5 8 11 18 13 9 3 18 5 20 6 1 0 2 -3 2 -8z m-208 -31 c10 -14
20 -34 22 -45 3 -11 12 -40 20 -64 23 -62 21 -187 -3 -244 -26 -61 -73 -111
-126 -136 -25 -12 -49 -21 -53 -21 -9 0 -29 37 -30 54 0 5 -6 12 -13 17 -7 4
-13 23 -13 42 -1 19 -4 33 -7 31 -18 -11 -26 175 -8 193 9 9 16 38 18 78 1 16
63 83 96 105 39 25 73 21 97 -10z m3584 11 c47 -23 73 -52 101 -111 44 -93 37
-250 -15 -358 -21 -44 -29 -51 -46 -46 -12 4 -23 11 -24 15 -2 5 -8 7 -12 4
-26 -16 -130 91 -114 117 4 6 3 8 -4 4 -31 -19 -44 203 -16 273 12 30 20 38
32 33 15 -5 15 -3 4 11 -12 14 -11 21 4 47 21 35 36 37 90 11z m-4406 -12
c-11 -8 -7 -9 18 -5 50 9 129 -33 192 -101 29 -31 53 -66 54 -79 0 -12 5 -20
10 -17 5 3 7 0 4 -8 -2 -8 -29 -31 -58 -51 -47 -34 -60 -38 -113 -38 -71 0
-183 42 -170 64 3 6 3 8 -2 4 -4 -4 -19 -1 -34 6 -40 21 -158 136 -144 142 6
3 21 14 34 25 33 28 99 56 138 57 18 0 36 3 39 6 3 3 15 6 26 6 18 0 19 -2 6
-11z m5293 -25 c43 -22 87 -57 87 -70 0 -19 -130 -125 -142 -117 -6 3 -8 1 -5
-4 4 -6 -21 -25 -56 -44 -56 -30 -70 -33 -145 -34 -45 0 -86 5 -90 10 -4 6
-24 22 -44 38 -26 19 -36 33 -33 47 6 29 45 81 56 75 5 -4 6 0 4 8 -7 16 41
60 102 93 38 20 60 24 130 24 71 0 92 -4 136 -26z m-4219 -314 c-3 -8 -2 -11
2 -7 11 11 42 -56 59 -128 19 -83 19 -138 0 -201 -16 -52 -59 -109 -74 -99 -5
3 -13 0 -17 -6 -5 -8 -2 -10 7 -5 8 4 5 0 -5 -8 -29 -23 -40 -20 -84 22 -35
32 -39 40 -30 57 10 17 9 18 -4 8 -13 -11 -17 -7 -26 26 -17 54 -15 178 4 230
18 54 38 83 49 73 5 -4 6 -2 2 3 -7 14 -1 22 47 64 l39 33 18 -23 c10 -13 16
-31 13 -39z m3080 16 c16 -13 26 -28 22 -34 -3 -6 -1 -14 5 -18 8 -5 9 -3 4 6
-5 9 -4 11 3 6 7 -4 12 -13 12 -21 0 -7 5 -15 11 -17 6 -2 19 -39 30 -83 16
-67 17 -89 8 -135 -6 -30 -14 -59 -17 -65 -4 -5 -7 -12 -7 -15 -3 -22 -18 -49
-25 -45 -5 3 -11 -4 -15 -15 -9 -29 -50 -53 -75 -45 -11 4 -17 11 -14 17 4 7
2 8 -4 4 -6 -3 -16 -1 -22 6 -42 50 -50 63 -46 74 3 9 -1 11 -11 7 -10 -4 -14
-2 -9 5 3 6 2 13 -4 17 -14 9 -13 141 2 190 6 22 11 43 10 47 -3 11 49 122 65
140 17 19 27 16 77 -26z m-3809 -166 c-27 -12 -8 -12 54 0 46 9 59 7 123 -19
81 -32 118 -62 111 -90 -3 -11 -27 -44 -55 -75 -39 -44 -60 -59 -100 -71 -61
-18 -139 -19 -205 -4 -80 19 -216 89 -173 89 6 0 8 5 5 11 -9 14 83 102 128
124 20 9 41 13 48 9 7 -4 9 -3 5 4 -3 6 6 15 21 20 35 13 66 14 38 2z m4542
-25 c47 -25 92 -63 143 -119 24 -27 24 -28 5 -39 -11 -6 -20 -9 -20 -6 0 2
-11 -6 -25 -19 -32 -29 -107 -52 -197 -59 -117 -8 -188 21 -256 106 -10 12
-15 26 -12 31 3 5 1 11 -5 15 -18 11 -10 42 15 59 14 9 25 14 25 12 0 -3 19 6
43 19 36 22 55 25 139 25 85 0 103 -3 145 -25z m-3491 -102 c31 -46 57 -95 58
-108 0 -14 4 -25 9 -25 4 0 6 -3 5 -7 -1 -5 2 -27 6 -51 9 -50 -1 -135 -15
-127 -5 3 -6 -1 -3 -9 4 -10 -12 -34 -43 -67 -49 -51 -49 -51 -79 -36 -40 21
-88 74 -109 120 -28 59 -22 279 6 262 5 -3 6 0 3 8 -5 13 41 102 68 131 18 19
28 9 94 -91z m2434 92 c-11 -13 -10 -14 2 -10 9 4 22 -8 37 -35 12 -22 19 -40
15 -40 -4 0 0 -8 10 -19 10 -11 14 -25 10 -36 -5 -12 -4 -16 3 -12 16 10 21
-11 28 -106 6 -78 5 -88 -20 -138 -29 -59 -83 -121 -97 -113 -4 3 -8 1 -8 -4
0 -6 -8 -13 -17 -16 -18 -7 -93 58 -93 82 0 7 -5 10 -12 6 -8 -5 -9 0 -6 14 4
12 3 20 -2 17 -23 -14 -26 98 -5 179 19 73 130 246 157 246 6 0 5 -6 -2 -15z
m-2081 -251 c21 -25 46 -60 55 -79 32 -66 40 -168 19 -225 -6 -16 -9 -27 -11
-48 -1 -7 -6 -10 -12 -7 -5 3 -7 0 -4 -9 7 -18 -32 -96 -49 -96 -58 2 -166
105 -158 153 0 4 -4 7 -10 7 -7 0 -9 13 -5 38 5 27 4 33 -3 22 -8 -12 -11 -8
-11 16 0 66 33 207 66 281 l14 32 35 -20 c19 -12 53 -41 74 -65z m1760 46 c22
0 57 -142 60 -241 2 -67 -16 -147 -38 -172 -44 -50 -74 -74 -108 -86 -34 -13
-37 -12 -54 10 -10 13 -30 59 -45 102 -20 60 -25 89 -20 130 3 29 6 60 6 70 1
9 6 15 12 11 6 -4 8 1 3 16 -5 17 -4 21 5 15 9 -5 11 -4 6 3 -13 21 54 119 74
107 6 -4 9 -1 8 6 -2 6 15 24 37 40 37 26 40 26 43 8 2 -10 7 -19 11 -19z
m-1413 -142 c17 -18 46 -60 64 -93 30 -56 32 -66 33 -165 1 -114 -13 -159 -66
-209 -35 -32 -60 -24 -131 41 -54 50 -58 56 -66 116 -10 70 1 161 27 230 16
43 32 55 34 25 0 -12 2 -13 6 -5 3 7 0 19 -6 26 -9 11 -8 24 5 55 16 40 17 40
42 27 15 -8 41 -29 58 -48z m1078 -59 c32 -80 36 -99 36 -184 0 -84 -3 -99
-26 -137 -25 -41 -85 -88 -131 -102 -17 -5 -28 2 -55 36 -43 53 -47 65 -54
149 -12 131 43 262 141 337 37 29 39 26 89 -99z m-2266 60 c42 -9 49 -13 45
-29 -3 -11 -9 -18 -13 -15 -5 3 -6 -3 -3 -14 7 -28 -42 -116 -79 -143 -68 -48
-96 -57 -175 -60 -132 -4 -203 3 -204 21 0 10 -2 12 -6 4 -6 -16 -33 -17 -33
-3 0 19 58 126 85 159 15 17 33 31 41 31 9 0 13 4 10 9 -6 9 41 35 79 44 39 9
204 7 253 -4z m3632 -20 c25 -14 44 -31 43 -37 -2 -6 3 -9 10 -7 15 6 50 -52
40 -67 -3 -7 -1 -8 5 -4 14 9 34 -28 26 -49 -4 -10 -2 -15 7 -13 8 2 13 -4 13
-14 -1 -10 3 -15 8 -12 6 4 9 1 6 -7 -6 -19 -75 -30 -203 -32 -99 -1 -114 1
-155 23 -81 44 -130 102 -130 154 0 16 -4 25 -10 21 -6 -4 -10 6 -10 24 0 24
5 32 23 35 12 3 31 7 42 10 11 3 70 4 130 3 98 -2 115 -5 155 -28z m-3260
-230 l42 -13 -5 -45 c-6 -64 -13 -87 -36 -124 -24 -38 -75 -87 -90 -87 -6 0
-11 -4 -11 -9 0 -12 -107 -44 -126 -37 -8 3 -13 2 -9 -3 7 -12 -139 -26 -156
-16 -8 6 -10 4 -4 -5 5 -8 3 -11 -6 -8 -9 3 -13 17 -11 39 4 44 53 150 66 142
5 -4 7 0 3 10 -8 21 97 132 115 121 7 -4 9 -3 5 1 -14 16 55 42 119 44 35 1
82 -4 104 -10z m2731 -1 c0 -10 2 -10 5 -1 3 7 12 9 20 6 13 -5 13 -8 2 -15
-10 -7 -9 -8 5 -4 23 7 49 -3 40 -17 -3 -6 -1 -7 5 -3 14 9 95 -71 86 -85 -3
-5 -2 -8 3 -7 4 2 9 0 11 -4 1 -5 11 -17 22 -28 11 -11 20 -26 20 -32 -1 -7
-7 -2 -14 12 l-14 25 1 -27 c1 -14 5 -24 9 -22 12 7 49 -50 45 -68 -3 -10 -2
-16 3 -13 4 3 10 -7 13 -20 2 -14 2 -27 -2 -29 -3 -2 -37 -3 -76 -1 -83 3
-209 31 -229 51 -8 8 -19 14 -24 14 -19 0 -104 103 -99 120 3 10 0 24 -5 31
-7 10 -8 9 -3 -6 4 -13 3 -17 -4 -10 -5 6 -11 26 -12 45 -6 78 21 98 129 99
43 1 62 -3 63 -11z m-1314 -110 c29 -12 50 -25 48 -29 -3 -3 5 -9 16 -12 11
-3 23 -15 26 -26 3 -11 9 -19 13 -16 15 9 30 -60 27 -130 -2 -59 -6 -76 -30
-107 -15 -20 -49 -46 -75 -59 -121 -57 -239 -22 -296 90 -19 37 -21 152 -3
184 25 45 40 58 50 45 6 -9 7 -8 4 4 -7 19 6 31 59 58 51 25 97 25 161 -2z
m-1019 -90 c7 -7 12 -36 12 -66 0 -131 -67 -224 -205 -282 -53 -22 -97 -34
-130 -34 l-50 -1 4 65 c2 41 12 85 28 120 28 60 97 135 115 124 6 -4 8 -3 5 3
-6 10 19 25 93 56 66 28 110 33 128 15z m1922 -19 c30 -11 66 -29 80 -40 14
-12 19 -17 11 -13 -9 5 -12 3 -7 -5 4 -6 12 -8 18 -5 13 8 88 -75 88 -98 0
-10 4 -18 8 -18 14 0 34 -73 35 -131 l2 -54 -45 1 c-59 2 -154 29 -176 52 -10
9 -20 16 -23 15 -15 -4 -61 33 -56 45 2 7 1 10 -5 7 -12 -8 -60 64 -60 91 0
13 -5 24 -12 26 -17 6 -14 138 4 150 17 11 69 3 138 -23z m-1523 -121 c34 -46
42 -170 13 -231 -22 -48 -111 -140 -175 -183 -31 -21 -105 -54 -120 -54 -12 0
-15 164 -5 233 15 96 26 121 75 170 34 34 47 41 68 38 4 0 7 4 7 10 0 5 5 7
10 4 6 -3 10 -2 10 4 0 19 103 27 117 9z m1104 -3 c44 -16 132 -92 123 -106
-2 -4 0 -10 6 -14 6 -3 17 -23 26 -43 18 -43 26 -282 9 -282 -5 0 -3 -5 5 -10
13 -8 13 -10 0 -10 -21 0 -120 42 -120 52 0 4 -6 8 -13 8 -18 0 -147 128 -147
145 0 8 -4 15 -9 15 -37 0 -36 200 2 248 13 17 65 15 118 -3z m-2971 -537 c0
-6 -6 -5 -15 2 -8 7 -15 14 -15 16 0 2 7 1 15 -2 8 -4 15 -11 15 -16z m31 -13
c8 6 69 -21 69 -31 0 -2 -13 2 -30 11 -16 8 -31 15 -34 15 -3 0 -33 -54 -66
-120 -33 -66 -65 -120 -71 -120 -5 0 -8 -4 -5 -9 3 -5 -19 -61 -50 -125 -48
-101 -53 -120 -42 -134 11 -15 11 -15 -2 -5 -8 6 -18 12 -23 12 -4 0 -15 4
-23 9 -14 8 -12 10 11 16 15 4 25 10 21 13 -3 3 -1 12 5 20 6 7 9 13 5 13 -3
0 7 26 23 58 15 31 43 87 61 125 19 37 37 67 42 67 5 0 7 4 4 9 -7 12 39 102
48 94 4 -4 4 0 1 9 -4 9 -2 19 4 23 6 3 11 14 11 24 0 21 23 47 28 31 2 -5 8
-8 13 -5z m4854 -45 c17 -18 17 -20 2 -14 -9 3 -17 9 -17 13 0 5 -30 9 -67 10
-90 3 -95 11 -6 11 58 0 73 -4 88 -20z m-4715 -15 c17 -9 30 -18 30 -21 0 -4
-59 23 -69 32 -10 9 13 3 39 -11z m4490 -35 c-12 -16 -22 -42 -22 -57 -3 -104
40 -132 207 -133 123 -2 158 -7 148 -23 -4 -6 0 -8 8 -5 15 5 51 -26 42 -36
-4 -3 -1 -6 5 -6 6 0 14 -20 17 -44 5 -33 2 -52 -14 -85 -27 -51 -35 -54 -14
-4 19 48 19 105 -2 136 -22 34 -81 47 -207 47 -85 0 -109 4 -136 20 -49 30
-74 76 -69 129 3 24 9 46 14 50 5 3 12 14 16 24 3 9 11 17 17 17 6 0 2 -13
-10 -30z m-4425 -8 c-3 -3 -11 0 -18 7 -9 10 -8 11 6 5 10 -3 15 -9 12 -12z
m4228 -58 c-8 -4 -9 -15 -2 -36 10 -37 4 -51 -6 -16 -4 13 -12 26 -18 29 -14
9 1 29 21 28 9 0 12 -3 5 -5z m-4033 -50 c-30 -8 -71 -26 -92 -40 -34 -24 -98
-88 -99 -99 0 -2 -8 -24 -18 -47 -45 -103 -35 -225 26 -306 l35 -47 -34 35
c-52 54 -73 112 -73 200 0 147 87 263 235 313 8 3 29 5 45 6 22 0 15 -4 -25
-15z m97 0 c-3 -3 -12 -4 -19 -1 -8 3 -5 6 6 6 11 1 17 -2 13 -5z m110 -97
c15 -29 17 -36 32 -115 10 -49 -9 -164 -28 -170 -6 -2 -9 -7 -6 -11 6 -11 -40
-72 -48 -64 -4 3 -7 0 -7 -8 0 -14 -60 -67 -69 -60 -2 1 -7 -1 -10 -6 -12 -17
-63 -33 -104 -32 l-42 2 45 6 c55 9 121 42 155 78 14 16 40 57 59 93 32 61 34
70 32 155 -2 96 -25 162 -66 187 -11 7 -20 17 -20 22 0 15 60 -46 77 -77z
m-638 47 c14 -12 -19 -1 -35 12 -18 14 -18 14 6 3 14 -6 27 -13 29 -15z m4154
-16 c-13 -6 -23 -16 -23 -22 0 -11 68 -199 100 -276 11 -27 15 -49 10 -54 -6
-5 -11 -8 -13 -5 -3 4 -72 185 -104 274 -8 22 -19 45 -25 52 -8 10 -2 17 23
28 39 16 65 19 32 3z m-4058 -28 c4 -6 11 -8 16 -5 5 4 9 2 9 -4 0 -5 -4 -13
-10 -16 -5 -3 -10 -1 -10 5 0 6 -10 15 -22 20 -17 6 -18 9 -6 9 9 1 20 -4 23
-9z m770 -30 c33 -10 51 -19 40 -18 -48 1 -52 -2 -59 -42 -3 -22 -17 -75 -31
-117 -25 -80 -31 -118 -17 -126 4 -2 1 -2 -5 -1 -7 2 -13 -4 -13 -12 0 -9 -5
-12 -12 -8 -7 4 -8 3 -4 -4 8 -13 -25 -143 -35 -136 -4 2 -5 -5 -2 -16 3 -11
0 -26 -6 -34 -9 -11 -8 -18 4 -30 20 -19 17 -19 -43 -4 -44 12 -45 13 -18 18
28 5 31 10 58 110 16 58 31 112 35 120 3 8 7 18 8 23 2 4 4 10 5 15 1 4 3 12
4 17 6 40 39 154 45 151 3 -2 7 18 8 45 3 43 0 51 -20 59 -41 16 -3 10 58 -10z
m229 -124 c22 -46 20 -73 -6 -126 -28 -54 -62 -80 -116 -87 -23 -3 -42 -8 -42
-10 0 -3 11 -18 25 -35 20 -24 25 -41 25 -86 1 -81 17 -144 43 -164 l22 -17
-22 5 c-19 5 -63 54 -48 54 3 0 1 8 -4 18 -5 10 -11 50 -12 89 -3 59 -8 79
-31 113 l-28 40 35 0 c44 0 95 24 119 57 20 27 37 133 24 149 -4 5 -20 25 -35
44 l-28 35 31 -23 c17 -12 39 -37 48 -56z m2573 29 c-15 -8 -35 -11 -45 -7
-13 5 -10 8 13 13 51 11 61 9 32 -6z m-37 -70 c-16 -47 -23 -40 -8 8 6 20 13
35 16 33 2 -3 -1 -21 -8 -41z m-290 6 c-8 -6 -18 -7 -22 -5 -13 8 -9 -1 17
-36 13 -18 22 -37 19 -41 -3 -5 2 -6 10 -3 9 3 16 1 16 -5 0 -6 17 -29 38 -50
20 -21 54 -58 76 -81 29 -32 41 -39 47 -29 6 10 9 10 9 2 0 -6 -5 -15 -10 -18
-6 -4 -7 -13 -1 -23 5 -10 14 -47 21 -82 22 -125 28 -140 58 -141 24 0 25 -1
7 -8 -31 -13 -116 -23 -87 -11 27 11 27 18 -1 146 -22 102 -40 135 -111 204
-10 11 -15 24 -11 31 5 7 4 10 -3 5 -5 -3 -36 23 -68 59 -41 46 -65 65 -83 66
-22 1 -19 3 14 14 49 16 88 19 65 6z m-1690 -19 c0 -5 -6 -17 -14 -27 -8 -11
-12 -25 -9 -32 3 -7 -3 -72 -12 -145 -15 -116 -19 -207 -13 -272 1 -11 20 -39
43 -63 23 -23 38 -43 33 -43 -11 0 -88 70 -86 78 1 4 -3 18 -9 32 -15 36 -14
109 3 235 26 193 27 233 7 238 -10 3 -1 5 20 6 20 0 37 -3 37 -7z m2939 -51
c1 -35 -5 -22 -12 24 -5 28 -4 34 3 20 5 -11 9 -31 9 -44z m-2902 43 c-3 -3
-12 -4 -19 -1 -8 3 -5 6 6 6 11 1 17 -2 13 -5z m3181 -51 c82 -8 78 -14 -6
-12 -69 2 -74 3 -95 33 l-22 31 33 -24 c22 -15 53 -25 90 -28z m-1885 30 c-7
-2 -21 -2 -30 0 -10 3 -4 5 12 5 17 0 24 -2 18 -5z m96 -4 c38 -13 81 -81 81
-128 0 -37 -19 -78 -49 -105 -11 -10 -19 -22 -16 -25 2 -4 -15 -8 -38 -9 -38
-1 -39 0 -14 8 64 20 108 104 88 170 -10 34 -42 82 -55 81 -3 0 -16 4 -28 9
-33 13 -7 12 31 -1z m1931 6 c0 -6 -56 -35 -67 -35 -4 1 8 9 27 20 39 22 40
22 40 15z m-2971 -21 c2 -2 -10 -4 -27 -4 -27 0 -31 -4 -35 -32 l-4 -33 -1 37
c-2 26 -7 38 -19 41 -10 2 5 2 32 -1 28 -3 52 -6 54 -8z m879 9 c-21 -5 -21
-4 -8 -112 6 -46 13 -106 15 -135 2 -28 11 -105 19 -171 8 -66 16 -123 16
-127 0 -5 17 -9 38 -9 30 -2 27 -3 -18 -9 -57 -7 -73 -4 -52 9 7 4 10 14 8 22
-7 18 -58 463 -55 481 3 28 -2 38 -21 38 -11 0 -20 4 -20 8 0 4 21 8 48 8 26
1 39 -1 30 -3z m-692 -26 c-11 -7 -35 -26 -53 -43 -28 -26 -33 -38 -33 -75 0
-61 28 -91 127 -139 100 -48 150 -91 163 -141 17 -62 -23 -135 -88 -160 -41
-16 -48 -9 -10 9 20 9 46 29 58 44 25 32 39 118 20 118 -7 0 -11 3 -8 6 9 8
-36 49 -71 63 -17 8 -28 18 -24 24 3 6 1 7 -5 3 -19 -12 -97 33 -147 84 -60
60 -36 159 48 206 28 16 48 17 23 1z m51 7 c-3 -3 -12 -4 -19 -1 -8 3 -5 6 6
6 11 1 17 -2 13 -5z m68 -11 c19 -9 35 -21 35 -26 0 -5 -5 -5 -12 1 -7 5 -29
17 -48 25 -19 9 -30 16 -23 16 7 1 28 -7 48 -16z m1252 -15 c-3 -8 -6 -5 -6 6
-1 11 2 17 5 13 3 -3 4 -12 1 -19z m-1170 -50 c-1 -17 -3 -16 -19 4 -23 30
-23 41 1 26 11 -6 19 -20 18 -30z m1154 5 c-12 -20 -14 -14 -5 12 4 9 9 14 11
11 3 -2 0 -13 -6 -23z m1006 5 c-3 -8 -6 -5 -6 6 -1 11 2 17 5 13 3 -3 4 -12
1 -19z m-2620 -60 c-2 -13 -4 -3 -4 22 0 25 2 35 4 23 2 -13 2 -33 0 -45z
m2296 42 c8 -31 9 -33 37 -59 42 -39 70 -55 114 -62 l41 -6 -45 -2 c-53 -1
-126 35 -124 62 1 9 -2 14 -7 11 -10 -6 -50 56 -43 68 9 14 22 9 27 -12z m308
-37 c-5 -10 -22 -29 -37 -43 -23 -21 -22 -18 7 17 37 46 45 53 30 26z m-1014
-25 c-3 -8 -6 -5 -6 6 -1 11 2 17 5 13 3 -3 4 -12 1 -19z m-1600 -70 c-2 -13
-4 -5 -4 17 -1 22 1 32 4 23 2 -10 2 -28 0 -40z m-1617 22 c8 -5 11 -10 5 -10
-5 0 -17 5 -25 10 -8 5 -10 10 -5 10 6 0 17 -5 25 -10z m1607 -102 c-2 -13 -4
-5 -4 17 -1 22 1 32 4 23 2 -10 2 -28 0 -40z m1020 46 c-3 -3 -12 -4 -19 -1
-8 3 -5 6 6 6 11 1 17 -2 13 -5z m201 -21 c40 -38 52 -64 52 -116 0 -48 -36
-107 -78 -126 -33 -16 -41 -13 -11 4 61 33 87 135 51 195 -11 18 -33 41 -49
51 -19 13 -23 19 -11 19 9 0 30 -12 46 -27z m-1231 -105 c-3 -7 -5 -2 -5 12 0
14 2 19 5 13 2 -7 2 -19 0 -25z m181 -113 c12 -20 37 -45 55 -55 18 -11 27
-20 20 -20 -6 0 -25 12 -42 26 -17 14 -31 23 -31 19 0 -17 -28 18 -33 40 -6
35 4 31 31 -10z m-228 11 c0 -2 -8 -10 -17 -17 -16 -13 -17 -12 -4 4 13 16 21
21 21 13z m-45 -36 c-3 -5 -12 -10 -18 -10 -7 0 -6 4 3 10 19 12 23 12 15 0z
m1248 -17 c-7 -2 -19 -2 -25 0 -7 3 -2 5 12 5 14 0 19 -2 13 -5z m-1326 -9
c-3 -3 -12 -4 -19 -1 -8 3 -5 6 6 6 11 1 17 -2 13 -5z m470 -30 c-3 -3 -12 -4
-19 -1 -8 3 -5 6 6 6 11 1 17 -2 13 -5z m46 -11 c-7 -2 -19 -2 -25 0 -7 3 -2
5 12 5 14 0 19 -2 13 -5z"/>
<path d="M11155 9210 c3 -5 8 -10 11 -10 2 0 4 5 4 10 0 6 -5 10 -11 10 -5 0
-7 -4 -4 -10z"/>
<path d="M6925 8939 c-11 -17 1 -21 15 -4 8 9 8 15 2 15 -6 0 -14 -5 -17 -11z"/>
<path d="M11866 8675 c-3 -8 -1 -15 4 -15 6 0 10 7 10 15 0 8 -2 15 -4 15 -2
0 -6 -7 -10 -15z"/>
<path d="M11500 8496 c0 -2 8 -10 18 -17 15 -13 16 -12 3 4 -13 16 -21 21 -21
13z"/>
<path d="M6769 8213 c-13 -16 -12 -17 4 -4 9 7 17 15 17 17 0 8 -8 3 -21 -13z"/>
<path d="M6996 8153 c-6 -14 -5 -15 5 -6 7 7 10 15 7 18 -3 3 -9 -2 -12 -12z"/>
<path d="M11770 8220 c0 -5 5 -10 11 -10 5 0 7 5 4 10 -3 6 -8 10 -11 10 -2 0
-4 -4 -4 -10z"/>
<path d="M7041 7954 c0 -11 3 -14 6 -6 3 7 2 16 -1 19 -3 4 -6 -2 -5 -13z"/>
<path d="M11647 7609 c7 -7 15 -10 18 -7 3 3 -2 9 -12 12 -14 6 -15 5 -6 -5z"/>
<path d="M11466 7277 c3 -10 9 -15 12 -12 3 3 0 11 -7 18 -10 9 -11 8 -5 -6z"/>
<path d="M6726 7232 c-2 -4 4 -8 14 -8 10 0 16 4 14 8 -3 4 -9 8 -14 8 -5 0
-11 -4 -14 -8z"/>
<path d="M6444 7194 c9 -8 16 -20 16 -26 0 -6 3 -9 6 -6 8 9 -14 48 -27 48 -6
0 -3 -7 5 -16z"/>
<path d="M11446 7093 c-6 -14 -5 -15 5 -6 7 7 10 15 7 18 -3 3 -9 -2 -12 -12z"/>
<path d="M11142 6836 c7 -8 15 -12 17 -11 5 6 -10 25 -20 25 -5 0 -4 -6 3 -14z"/>
<path d="M10982 6680 c0 -14 2 -19 5 -12 2 6 2 18 0 25 -3 6 -5 1 -5 -13z"/>
<path d="M6520 6736 c0 -2 8 -10 18 -17 15 -13 16 -12 3 4 -13 16 -21 21 -21
13z"/>
<path d="M7180 6366 c0 -2 7 -7 16 -10 8 -3 12 -2 9 4 -6 10 -25 14 -25 6z"/>
<path d="M11538 6363 c7 -3 16 -2 19 1 4 3 -2 6 -13 5 -11 0 -14 -3 -6 -6z"/>
<path d="M11256 6262 c-3 -5 1 -9 9 -9 8 0 12 4 9 9 -3 4 -7 8 -9 8 -2 0 -6
-4 -9 -8z"/>
<path d="M9275 5640 c-3 -6 1 -7 9 -4 18 7 21 14 7 14 -6 0 -13 -4 -16 -10z"/>
<path d="M9340 5646 c0 -2 7 -7 16 -10 8 -3 12 -2 9 4 -6 10 -25 14 -25 6z"/>
<path d="M4220 2440 l0 -180 45 0 45 0 0 -371 0 -371 123 -124 122 -124 241 0
241 0 122 122 121 122 0 373 0 373 55 0 55 0 0 158 c0 86 -3 167 -6 180 l-6
22 -284 0 -284 0 0 -165 0 -165 24 0 c33 0 36 -26 36 -362 l0 -288 -30 -1
c-16 -1 -37 -1 -45 -1 -8 0 -31 0 -50 1 l-35 1 0 320 0 320 25 0 25 0 0 170 0
170 -270 0 -270 0 0 -180z m420 0 l0 -60 -30 0 -30 0 0 -392 0 -392 37 -38 37
-38 135 0 135 0 38 37 38 37 0 362 c0 199 -3 376 -6 393 -6 26 -11 31 -35 31
-29 0 -29 1 -29 60 l0 60 165 0 165 0 0 -60 0 -60 -50 0 -50 0 0 -408 0 -407
-88 -88 -87 -87 -195 0 -195 0 -87 87 -88 88 0 407 0 408 -45 0 -45 0 0 60 0
60 155 0 155 0 0 -60z"/>
<path d="M5490 2440 l0 -180 45 0 45 0 0 -310 0 -310 -22 -1 c-13 -1 -27 -2
-33 -4 -5 -1 -16 -3 -22 -3 -10 -2 -13 -44 -13 -176 l0 -173 38 -7 c20 -3 142
-6 270 -6 l232 0 0 174 0 173 -51 6 c-29 4 -53 8 -56 10 -2 2 -2 68 -1 147 l3
142 25 -38 c14 -22 95 -166 180 -321 139 -253 158 -282 184 -287 16 -3 95 -6
177 -6 l149 0 0 495 0 495 45 0 c25 0 45 3 46 8 0 4 2 32 5 62 2 30 1 108 -2
173 l-6 117 -264 0 -264 0 0 -165 c0 -125 3 -165 13 -166 19 -1 61 -9 75 -14
14 -5 17 -191 4 -212 -8 -12 -56 72 -227 397 -28 52 -59 110 -70 128 l-19 32
-243 0 -243 0 0 -180z m432 23 c23 -35 176 -305 384 -680 43 -79 82 -143 87
-143 4 0 7 167 7 370 l0 370 -40 0 -40 0 0 60 0 60 145 0 145 0 0 -60 0 -60
-45 0 -45 0 0 -495 0 -495 -62 0 c-35 0 -72 3 -83 6 -14 3 -80 112 -214 352
-203 362 -330 582 -337 582 -2 0 -4 -182 -4 -405 l0 -405 44 0 c41 0 44 -2 50
-31 3 -17 6 -47 6 -65 l0 -34 -124 0 c-68 0 -138 3 -155 6 -30 6 -31 7 -31 65
l0 59 48 0 47 0 -3 430 -2 430 -45 0 -45 0 0 60 0 60 144 0 143 0 25 -37z"/>
<path d="M6830 2440 l0 -180 49 0 50 0 1 -310 1 -310 -36 -1 c-19 -1 -41 -2
-47 -3 -10 -1 -14 -45 -16 -178 l-2 -177 52 -6 c29 -3 163 -5 298 -3 l245 3 3
140 c3 159 -3 226 -21 220 -7 -3 -25 -1 -41 3 l-30 8 -1 285 c-1 156 0 294 3
307 4 19 11 22 48 22 l44 0 0 158 c0 86 -3 167 -6 180 l-6 22 -294 0 -294 0 0
-180z m470 0 l0 -60 -45 0 -45 0 0 -430 0 -430 30 -1 c17 -1 36 -2 43 -3 8 -1
13 -23 15 -63 l3 -63 -139 0 c-77 0 -154 3 -171 6 -30 6 -31 7 -31 65 l0 59
45 0 45 0 0 430 0 430 -45 0 -45 0 0 60 0 60 170 0 170 0 0 -60z"/>
<path d="M7520 2440 l0 -180 68 0 c65 0 68 -1 80 -30 8 -16 82 -235 166 -487
l152 -457 32 -8 c18 -5 93 -7 169 -6 l136 3 38 115 c21 63 81 250 134 415 53
165 108 335 121 377 l25 77 77 3 77 3 3 135 c2 74 0 154 -3 178 l-6 42 -300 0
-299 0 0 -180 0 -180 30 0 c28 0 30 -2 24 -27 -16 -74 -88 -283 -94 -276 -7 8
-100 282 -100 296 0 4 14 7 30 7 l30 0 0 180 0 180 -295 0 -295 0 0 -180z
m470 0 l0 -60 -45 0 c-27 0 -45 -5 -45 -12 0 -6 38 -126 84 -267 47 -141 101
-308 122 -371 20 -63 40 -119 44 -123 4 -5 24 43 44 105 108 330 206 640 206
653 0 11 -12 15 -45 15 l-45 0 0 60 0 60 180 0 180 0 0 -60 0 -59 -62 -3 -61
-3 -58 -180 c-31 -99 -102 -319 -157 -490 l-101 -310 -75 0 c-41 1 -77 3 -79
5 -1 3 -67 201 -146 440 -79 239 -152 459 -163 488 l-19 52 -55 0 -54 0 0 60
0 60 175 0 175 0 0 -60z"/>
<path d="M8890 2440 l0 -180 45 0 45 0 -2 -312 -3 -312 -40 -1 -40 0 -3 -176
-2 -176 37 -7 c21 -3 262 -6 536 -6 l497 0 0 230 0 230 -199 0 -200 0 -3 -47
c-2 -38 -7 -48 -20 -47 -10 0 -47 1 -83 2 l-65 2 0 70 0 70 145 1 c80 1 151 2
158 3 14 1 23 228 12 304 l-6 42 -155 0 -154 0 0 65 0 65 80 0 79 0 7 -35 6
-35 199 0 199 0 0 215 0 215 -535 0 -535 0 0 -180z m950 -35 l0 -95 -80 0 -80
0 0 35 0 35 -205 0 -205 0 0 -185 0 -185 155 0 c173 0 156 8 159 -72 l2 -28
-158 0 -158 0 0 -195 0 -195 205 0 205 0 0 45 0 45 80 0 80 0 0 -110 0 -110
-384 0 c-211 0 -398 3 -415 6 -32 7 -32 7 -29 63 l3 56 48 3 47 3 0 398 c0
219 -3 413 -6 430 -6 29 -9 31 -50 31 l-44 0 0 60 0 60 415 0 415 0 0 -95z"/>
<path d="M10070 2440 l0 -180 45 0 45 0 0 -309 0 -310 -42 -3 -43 -3 -3 -177
-2 -177 52 -6 c29 -3 157 -5 283 -3 l230 3 3 125 c2 69 0 144 -3 168 -6 38 -9
42 -36 42 l-29 0 0 85 0 85 34 0 c32 0 36 -4 75 -79 46 -89 47 -91 26 -91 -13
0 -15 -25 -15 -164 l0 -163 38 -7 c20 -3 142 -6 270 -6 l232 0 0 179 c0 201 4
191 -81 191 l-36 0 -57 123 -56 122 65 60 65 60 0 196 0 196 -115 112 -115
111 -415 0 -415 0 0 -180z m858 -16 l82 -76 0 -148 0 -147 -74 -74 -75 -74 92
-192 91 -193 33 0 33 0 0 -65 0 -65 -119 0 c-65 0 -133 3 -150 6 -30 6 -31 7
-31 65 l0 59 35 0 c19 0 35 2 35 4 0 4 -103 224 -142 304 l-31 62 -129 0 -128
0 0 -185 0 -185 30 0 30 0 0 -65 0 -65 -122 0 c-68 0 -140 3 -161 6 l-38 7 3
56 3 56 43 3 42 3 0 430 0 429 -45 0 -45 0 0 60 0 60 328 0 329 0 81 -76z"/>
<path d="M10450 2195 l0 -185 163 0 163 0 37 44 37 45 0 105 0 105 -44 35 -43
36 -157 0 -156 0 0 -185z m275 32 c4 -19 5 -47 3 -63 -3 -25 -8 -29 -38 -32
-19 -2 -54 -1 -77 3 l-43 6 0 60 0 59 75 0 74 0 6 -33z"/>
<path d="M11437 2502 l-117 -117 0 -186 0 -185 91 -97 91 -97 199 0 199 0 0
-89 0 -90 -27 -3 c-16 -2 -54 -1 -85 0 l-58 4 0 54 0 54 -202 -2 -203 -3 -3
-115 -3 -115 124 -123 124 -122 254 0 255 0 114 115 c63 64 116 117 118 119 1
2 3 108 3 236 l0 232 -53 57 c-29 31 -66 68 -81 84 l-29 27 -178 0 c-98 0
-192 3 -209 6 -30 6 -31 8 -31 60 l0 54 85 0 85 0 0 -34 0 -34 63 -7 c34 -3
125 -5 202 -3 l140 3 3 109 3 108 -108 109 -107 109 -271 0 -270 0 -118 -118z
m664 -79 c62 -60 79 -83 79 -105 l0 -28 -70 0 c-69 0 -70 0 -117 45 l-47 45
-128 0 -129 0 -40 -32 -39 -31 0 -123 c0 -171 -11 -164 254 -164 l201 0 58
-53 57 -53 0 -180 0 -180 -81 -87 -81 -87 -203 0 -203 0 -81 88 c-76 81 -81
90 -79 126 l3 40 71 3 71 4 6 -30 c4 -17 24 -50 45 -73 l39 -41 134 2 134 2
30 37 c30 36 30 37 35 185 l5 148 -26 25 c-25 24 -26 24 -231 24 l-206 0 -56
64 -56 63 0 144 0 144 77 77 78 78 209 0 209 0 78 -77z"/>
<path d="M12440 2440 l0 -180 44 0 c37 0 45 -4 50 -22 3 -13 6 -152 6 -310 0
-267 -1 -288 -17 -289 -17 -1 -41 -4 -70 -7 -10 -2 -13 -44 -13 -176 l0 -175
53 -6 c28 -3 162 -5 297 -3 l245 3 3 130 c4 167 -3 232 -26 232 -9 0 -29 1
-44 2 l-28 1 0 309 0 310 48 3 47 3 3 135 c2 74 0 154 -3 178 l-6 42 -295 0
-294 0 0 -180z m470 0 l0 -60 -45 0 -45 0 0 -429 0 -430 43 -3 42 -3 3 -63 3
-64 -166 4 c-117 2 -168 7 -173 15 -6 10 -8 70 -3 106 1 4 21 7 46 7 l45 0 0
430 0 430 -48 0 -48 0 2 53 c2 28 3 55 3 60 1 4 78 7 171 7 l170 0 0 -60z"/>
<path d="M13120 2375 l0 -244 165 -3 165 -3 0 68 c0 59 2 67 19 67 10 0 22 -7
25 -16 3 -9 6 -148 6 -310 0 -322 5 -294 -55 -299 -11 -1 -26 -3 -32 -4 -10
-1 -13 -43 -13 -175 l0 -175 53 -6 c28 -3 162 -5 297 -3 l245 3 3 120 c2 66 0
148 -3 183 l-7 62 -44 0 -44 0 0 310 c0 297 1 310 19 310 24 0 31 -19 31 -81
l0 -49 170 0 170 0 0 214 c0 117 -3 228 -6 245 l-6 31 -579 0 -579 0 0 -245z
m1040 -5 l0 -131 -50 2 -50 3 0 37 c0 20 -3 51 -6 68 l-6 31 -134 0 -134 0 0
-429 0 -430 43 -3 42 -3 3 -62 3 -63 -139 0 c-77 0 -154 3 -171 6 -30 6 -31 7
-31 65 l0 59 45 0 45 0 0 430 0 430 -134 0 c-153 0 -150 2 -145 -88 4 -53 -5
-59 -67 -47 l-34 6 0 124 0 125 460 0 460 0 0 -130z"/>
<path d="M14344 2607 c-2 -7 -3 -87 -2 -177 l3 -165 57 -3 c56 -3 57 -4 86
-50 16 -26 75 -132 130 -235 l102 -189 0 -74 c0 -41 -3 -74 -7 -75 -5 0 -24
-2 -43 -2 l-35 -2 -3 -177 -2 -177 52 -6 c29 -3 161 -5 293 -3 l240 3 2 150
c1 83 -1 164 -5 180 -7 26 -13 30 -50 33 l-42 3 0 68 c0 68 1 70 107 267 59
110 116 218 128 241 l20 43 63 0 62 0 0 158 c0 86 -3 167 -6 180 l-6 22 -264
0 -263 0 2 -165 c2 -150 4 -165 20 -165 15 0 12 -10 -18 -70 -19 -38 -39 -70
-43 -70 -7 0 -72 123 -72 135 0 3 7 5 15 5 13 0 15 25 15 165 l0 165 -265 0
c-208 0 -267 -3 -271 -13z m410 -123 c3 -9 6 -35 6 -59 0 -43 -1 -44 -34 -47
l-34 -3 112 -208 c127 -233 116 -225 172 -117 15 30 56 107 90 170 34 63 65
125 69 138 6 19 3 22 -24 22 l-31 0 0 60 0 60 145 0 c163 0 147 9 149 -82 1
-37 0 -38 -36 -38 l-36 0 -151 -281 -151 -281 0 -149 0 -148 43 -3 42 -3 3
-62 3 -63 -139 0 c-77 0 -154 3 -171 6 -30 6 -31 8 -31 59 0 57 7 65 61 65
l29 0 0 152 0 152 -116 215 c-183 340 -183 341 -221 341 l-33 0 0 60 0 60 139
0 c117 0 140 -2 145 -16z"/>
</g>
</svg>
